<svg width="70" height="70" viewBox="0 0 70 70" fill="none" xmlns="http://www.w3.org/2000/svg">
<circle cx="35" cy="35" r="35" fill="#00C65E"/>
<rect x="10.101" y="33.4802" width="14.6607" height="30.0505" rx="1.01514" transform="rotate(-51.887 10.101 33.4802)" fill="#00C65E" stroke="white" stroke-width="2.03028"/>
<path d="M19.5827 33.1381L17.7028 31.7042L18.7288 30.3591C18.9327 30.0917 19.195 29.9382 19.5116 29.8956C19.8282 29.853 20.1218 29.9316 20.3892 30.1356C20.6566 30.3396 20.8101 30.6019 20.8527 30.9185C20.8923 31.2391 20.8096 31.5296 20.6087 31.793L19.5827 33.1381ZM21.4269 32.4171C21.8288 31.8902 21.996 31.3233 21.9247 30.7133C21.8543 30.1103 21.5691 29.6151 21.0742 29.2376C20.5793 28.86 20.0262 28.716 19.4221 28.8045C18.8189 28.9 18.3124 29.2081 17.9105 29.735L16.1965 31.9821L18.8947 34.0401L18.3954 34.6947L19.2137 35.3188L19.7129 34.6642L20.2837 35.0996L19.7844 35.7542L20.6027 36.3783L21.1019 35.7237L21.9202 36.3478L22.6082 35.4457L21.79 34.8216L23.1904 32.9856L22.3721 32.3615L20.9717 34.1975L20.401 33.7622L21.4269 32.4171Z" fill="white"/>
<rect x="26.8947" y="19.5984" width="14.6607" height="30.0505" rx="1.01514" transform="rotate(-0.181353 26.8947 19.5984)" fill="#00C65E" stroke="white" stroke-width="2.03028"/>
<path d="M32.7057 27.3445L32.6661 24.9805L34.3576 24.9522C34.6939 24.9465 34.9769 25.0573 35.2065 25.2793C35.4362 25.5014 35.5563 25.7806 35.562 26.1168C35.5676 26.4531 35.4569 26.7361 35.2348 26.9658C35.0077 27.1955 34.7285 27.3106 34.3972 27.3162L32.7057 27.3445ZM34.4144 28.3451C35.077 28.334 35.6256 28.114 36.0601 27.6799C36.4897 27.251 36.7017 26.7203 36.6913 26.0979C36.6809 25.4755 36.4512 24.9522 36.0074 24.5329C35.5586 24.1187 35.0029 23.9121 34.3404 23.9232L31.5146 23.9706L31.5714 27.3635L30.7483 27.3773L30.7655 28.4063L31.5887 28.3925L31.6007 29.1102L30.7775 29.124L30.7948 30.1529L31.6179 30.1392L31.6352 31.1681L32.7695 31.1491L32.7523 30.1201L35.0611 30.0815L35.0438 29.0525L32.735 29.0912L32.723 28.3735L34.4144 28.3451Z" fill="white"/>
<rect x="48.8485" y="23.5389" width="14.6607" height="30.0505" rx="1.01514" transform="rotate(54.1804 48.8485 23.5389)" fill="#00C65E" stroke="white" stroke-width="2.03028"/>
<path d="M44.7589 34.7078L46.703 33.3622L47.6658 34.7532C47.8573 35.0297 47.9223 35.3266 47.8651 35.6409C47.8079 35.9552 47.6425 36.2101 47.366 36.4015C47.0894 36.5929 46.7926 36.658 46.4782 36.6008C46.1611 36.5395 45.9103 36.3712 45.7217 36.0988L44.7589 34.7078ZM44.8756 36.6845C45.2527 37.2293 45.7403 37.5633 46.3426 37.6837C46.9378 37.8029 47.4969 37.6845 48.0088 37.3302C48.5206 36.976 48.8283 36.4944 48.9306 35.8924C49.0259 35.2892 48.8891 34.7123 48.512 34.1675L46.9035 31.8436L44.1133 33.7749L43.6447 33.098L42.7986 33.6837L43.2671 34.3606L42.6769 34.7692L42.2083 34.0922L41.3622 34.6779L41.8307 35.3548L40.9845 35.9405L41.6302 36.8733L42.4764 36.2877L43.7906 38.1864L44.6367 37.6007L43.3225 35.702L43.9128 35.2934L44.8756 36.6845Z" fill="white"/>
</svg>
