<svg width="71" height="71" viewBox="0 0 71 71" fill="none" xmlns="http://www.w3.org/2000/svg">
<circle cx="35.5" cy="35.5" r="35.5" fill="#00C65E"/>
<path d="M35.654 17.1216L47.3532 18.813C47.8884 18.8903 48.28 19.3447 48.28 19.8794V34.7866C48.2798 46.324 38.9144 52.0431 35.7693 53.6303C35.598 53.7166 35.4114 53.7168 35.24 53.6303C32.0924 52.0432 22.7186 46.3241 22.7185 34.7866V19.8794C22.7185 19.3447 23.111 18.8903 23.6462 18.813L35.3445 17.1216C35.447 17.1067 35.5515 17.1068 35.654 17.1216Z" stroke="white" stroke-width="3.16474"/>
<path d="M30.3716 30.0575H33.3785V36.9182H34.671C37.5713 36.9182 39.0208 35.509 39.0197 32.6907C39.0197 29.93 37.6739 28.5502 34.9822 28.5512H34.4392V26.3177L34.8275 26.3177C37.1427 26.3177 38.9415 26.8733 40.2238 27.9845C41.5061 29.0956 42.1467 30.6427 42.1456 32.6256C42.1456 34.7368 41.4818 36.353 40.1541 37.4742C38.8264 38.5955 36.9046 39.1597 34.3887 39.1667H30.3716V30.0575Z" fill="white"/>
<path d="M33.3802 26.3177H30.3716V28.9982H33.3802V26.3177Z" fill="white"/>
</svg>
