<svg width="70" height="70" viewBox="0 0 70 70" fill="none" xmlns="http://www.w3.org/2000/svg">
<circle cx="35" cy="35" r="35" fill="#00C65E"/>
<path d="M34.3209 36.321V34.7462H35.5134C35.7461 34.7462 35.9373 34.8251 36.091 34.9747C36.2406 35.1285 36.3195 35.3196 36.3195 35.5523C36.3195 35.7684 36.2406 35.9512 36.091 36.1008C35.9373 36.2504 35.7461 36.321 35.5134 36.321H34.3209ZM35.5134 37.3391C36.1367 37.3391 36.6395 37.1645 37.0218 36.8155C37.4041 36.4665 37.5952 36.0343 37.5952 35.5107C37.5952 34.9913 37.3999 34.5509 37.0093 34.1852C36.6187 33.8196 36.1242 33.6367 35.53 33.6367H33.0452V36.321H32.4053V37.3391H33.0452V37.8086H32.4053V38.8308H33.0452V39.5954H34.3209V38.8308H36.1076V37.8086H34.3209V37.3391H35.5134Z" fill="white"/>
<path d="M32.429 25.2619C33.2377 22.7727 36.7588 22.7727 37.5676 25.2619L39.2004 30.2883C39.2728 30.5109 39.481 30.6613 39.7151 30.6613H45.0002C47.6173 30.6616 48.7052 34.0106 46.5881 35.549L42.3118 38.6555C42.1225 38.793 42.0432 39.0374 42.1155 39.2599L43.7493 44.2863C44.5581 46.7755 41.7085 48.8452 39.5911 47.3068L35.3157 44.2004C35.1264 44.063 34.8702 44.0631 34.6809 44.2004L30.4045 47.3068C28.2871 48.8452 25.4385 46.7755 26.2473 44.2863L27.8801 39.2599C27.9525 39.0373 27.8732 38.7931 27.6838 38.6555L23.4084 35.549C21.291 34.0106 22.3791 30.6613 24.9963 30.6613H30.2815C30.5155 30.6613 30.7228 30.5109 30.7952 30.2883L32.429 25.2619Z" stroke="white" stroke-width="2.16143"/>
<rect width="2.13982" height="5.88038" rx="1.06991" transform="matrix(-0.01359 -0.999908 0.999977 -0.006828 51.0668 35.2773)" fill="white"/>
<rect width="2.13982" height="5.88039" rx="1.06991" transform="matrix(-0.01359 -0.999908 0.999977 -0.00682799 13.0811 36.3164)" fill="white"/>
<rect width="2.14684" height="5.86116" rx="1.07342" transform="matrix(0.999977 -0.00682792 0.0135899 0.999908 33.4293 15.0146)" fill="white"/>
<rect width="2.14684" height="5.86116" rx="1.07342" transform="matrix(0.999977 -0.00682792 0.0135899 0.999908 33.4297 49.1406)" fill="white"/>
<rect width="2.14334" height="4.36953" rx="1.07167" transform="matrix(-0.71784 -0.701047 0.698653 -0.710719 46.582 24.957)" fill="white"/>
<rect width="2.14334" height="4.36953" rx="1.07167" transform="matrix(0.698653 -0.710719 -0.717841 -0.701047 22.6923 25.1242)" fill="white"/>
<rect width="2.14334" height="4.36953" rx="1.07167" transform="matrix(-0.698654 0.710718 0.717841 0.701046 47.2773 45.1992)" fill="white"/>
<rect width="2.14334" height="4.36952" rx="1.07167" transform="matrix(0.717842 0.701046 -0.698654 0.710718 23.0731 45.8051)" fill="white"/>
</svg>
