<svg width="70" height="70" viewBox="0 0 70 70" fill="none" xmlns="http://www.w3.org/2000/svg">
<circle cx="35" cy="35" r="35" fill="#00C65E"/>
<path fill-rule="evenodd" clip-rule="evenodd" d="M35.0022 54.9986C46.0464 54.9986 54.9994 46.0456 54.9994 35.0014C54.9994 23.9573 46.0464 15.0042 35.0022 15.0042C23.9581 15.0042 15.005 23.9573 15.005 35.0014C15.005 46.0456 23.9581 54.9986 35.0022 54.9986ZM25.4492 49.2994C28.2768 51.1894 31.6013 52.1986 35.0025 52.1992C39.5623 52.1948 43.9343 50.3816 47.1589 47.1576C50.3836 43.9336 52.1976 39.562 52.203 35.0021C52.203 31.601 51.1945 28.2762 49.305 25.4483C47.4155 22.6203 44.7298 20.4161 41.5877 19.1144C38.4455 17.8127 34.9879 17.4719 31.6521 18.1352C28.3163 18.7985 25.252 20.436 22.8468 22.8407C20.4416 25.2454 18.8035 28.3094 18.1396 31.6451C17.4756 34.9807 17.8157 38.4384 19.1168 41.5808C20.4179 44.7233 22.6216 47.4093 25.4492 49.2994Z" fill="white"/>
<path d="M35.6636 21.5318V19.8233C35.6636 19.4573 35.3669 19.1606 35.0009 19.1606C34.6349 19.1606 34.3381 19.4573 34.3381 19.8233V21.5318C34.3381 21.8978 34.6349 22.1945 35.0009 22.1945C35.3669 22.1945 35.6636 21.8978 35.6636 21.5318Z" fill="white"/>
<path d="M35.6518 50.1681V48.4596C35.6518 48.0936 35.355 47.7969 34.989 47.7969C34.623 47.7969 34.3263 48.0936 34.3263 48.4596V50.1681C34.3263 50.5341 34.623 50.8309 34.989 50.8309C35.355 50.8309 35.6518 50.5341 35.6518 50.1681Z" fill="white"/>
<path d="M21.5238 34.339H19.8153C19.4493 34.339 19.1526 34.6357 19.1526 35.0017C19.1526 35.3677 19.4493 35.6645 19.8153 35.6645H21.5238C21.8899 35.6645 22.1866 35.3677 22.1866 35.0017C22.1866 34.6357 21.8899 34.339 21.5238 34.339Z" fill="white"/>
<path d="M50.1645 34.339H48.4559C48.0899 34.339 47.7932 34.6357 47.7932 35.0017C47.7932 35.3677 48.0899 35.6645 48.4559 35.6645H50.1645C50.5305 35.6645 50.8272 35.3677 50.8272 35.0017C50.8272 34.6357 50.5305 34.339 50.1645 34.339Z" fill="white"/>
<path d="M26.9766 21.6325L28.2394 23.8196C28.3096 23.9412 28.4651 23.9829 28.5867 23.9127C28.7083 23.8425 28.75 23.687 28.6798 23.5654L27.417 21.3782C27.3468 21.2566 27.1913 21.215 27.0697 21.2852C26.9481 21.3554 26.9064 21.5109 26.9766 21.6325Z" fill="white"/>
<path d="M21.3659 27.4299L23.553 28.6927C23.6746 28.7629 23.8301 28.7212 23.9003 28.5996C23.9706 28.478 23.9289 28.3225 23.8073 28.2523L21.6201 26.9896C21.4985 26.9193 21.343 26.961 21.2728 27.0826C21.2026 27.2042 21.2443 27.3597 21.3659 27.4299Z" fill="white"/>
<path d="M21.6155 43.0176L23.8026 41.7548C23.9242 41.6846 23.9659 41.5291 23.8957 41.4075C23.8255 41.2859 23.67 41.2442 23.5484 41.3144L21.3612 42.5772C21.2396 42.6474 21.198 42.8029 21.2682 42.9245C21.3384 43.0461 21.4939 43.0878 21.6155 43.0176Z" fill="white"/>
<path d="M27.6367 48.841L28.8995 46.6438C28.9697 46.5216 28.9276 46.3657 28.8054 46.2955C28.6833 46.2253 28.5273 46.2674 28.4571 46.3896L27.1944 48.5867C27.1241 48.7089 27.1663 48.8648 27.2884 48.9351C27.4106 49.0053 27.5665 48.9631 27.6367 48.841Z" fill="white"/>
<path d="M43.0033 48.38L41.7406 46.1929C41.6704 46.0713 41.5149 46.0296 41.3933 46.0998C41.2717 46.17 41.23 46.3255 41.3002 46.4471L42.563 48.6343C42.6332 48.7559 42.7887 48.7976 42.9103 48.7274C43.0319 48.6571 43.0735 48.5016 43.0033 48.38Z" fill="white"/>
<path d="M48.6136 42.5785L46.4265 41.3157C46.3049 41.2455 46.1494 41.2872 46.0791 41.4088C46.0089 41.5304 46.0506 41.6859 46.1722 41.7561L48.3594 43.0188C48.481 43.089 48.6365 43.0474 48.7067 42.9258C48.7769 42.8042 48.7352 42.6487 48.6136 42.5785Z" fill="white"/>
<path d="M48.365 26.9908L46.1779 28.2536C46.0562 28.3238 46.0146 28.4793 46.0848 28.6009C46.155 28.7225 46.3105 28.7642 46.4321 28.694L48.6192 27.4312C48.7408 27.361 48.7825 27.2055 48.7123 27.0839C48.6421 26.9623 48.4866 26.9206 48.365 26.9908Z" fill="white"/>
<path d="M42.565 21.3813L41.3022 23.5684C41.232 23.69 41.2737 23.8455 41.3953 23.9157C41.5169 23.9859 41.6724 23.9443 41.7426 23.8227L43.0053 21.6355C43.0756 21.5139 43.0339 21.3584 42.9123 21.2882C42.7907 21.218 42.6352 21.2597 42.565 21.3813Z" fill="white"/>
<path d="M35.4762 32.9097C34.675 32.9097 34.049 33.0516 33.5984 33.3354L33.7653 31.1154H38.7226V28.8871H31.4619L31.0362 35.7306L32.8306 35.8975L33.0142 35.6555C33.1394 35.5053 33.3647 35.3467 33.6902 35.1881C34.0073 35.0379 34.3745 34.9544 34.7918 34.9544C35.3843 34.9544 35.8767 35.1464 36.2606 35.522C36.6445 35.9059 36.8365 36.3732 36.8365 36.924C36.8365 37.4832 36.6612 37.9339 36.294 38.2844C35.9268 38.6349 35.4261 38.8018 34.7835 38.8018C34.2827 38.8018 33.7987 38.6933 33.3146 38.468C32.8389 38.251 32.5301 38.0757 32.3799 37.9422C32.238 37.8087 32.1295 37.7002 32.0544 37.6084L30.5188 39.2274L30.6774 39.4194C30.7859 39.5613 30.9611 39.7198 31.2031 39.9034C31.4535 40.0871 31.7373 40.2623 32.0628 40.4459C32.3882 40.6295 32.8139 40.7881 33.3313 40.9216C33.8487 41.0552 34.3912 41.1136 34.9587 41.1136C36.3107 41.1136 37.404 40.7213 38.2386 39.9285C39.0732 39.1356 39.4821 38.1342 39.4821 36.924C39.4821 35.7723 39.1065 34.8209 38.3387 34.0531C37.5793 33.2936 36.6279 32.9097 35.4762 32.9097Z" fill="white"/>
</svg>
