<svg width="16" height="17" viewBox="0 0 16 17" fill="none" xmlns="http://www.w3.org/2000/svg">
<path d="M1.72266 7.20801C1.72265 7.01485 1.56621 6.85859 1.37305 6.8584C1.15409 6.8581 0.940647 6.78749 0.764648 6.65723C0.588617 6.5269 0.458736 6.3432 0.394531 6.13379C0.330381 5.92439 0.335448 5.69973 0.408203 5.49316C0.480908 5.28681 0.61786 5.10927 0.798828 4.98633L7.38672 0.53125L7.39062 0.52832C7.5581 0.4122 7.75714 0.349609 7.96094 0.349609C8.16476 0.349626 8.36378 0.412166 8.53125 0.52832L8.53516 0.53125L15.123 4.98633C15.3046 5.10969 15.4421 5.28793 15.5146 5.49512C15.5872 5.7025 15.5906 5.9279 15.5254 6.1377C15.46 6.3476 15.3289 6.5315 15.1514 6.66113C14.9738 6.79072 14.7589 6.86008 14.5391 6.8584C14.4459 6.85779 14.3562 6.89434 14.29 6.95996C14.224 7.02564 14.1865 7.11486 14.1865 7.20801V16.3311C14.1865 16.4111 14.1552 16.4883 14.0986 16.5449C14.0421 16.6015 13.9648 16.6328 13.8848 16.6328H2.03613C1.95409 16.6327 1.87495 16.6005 1.81641 16.543C1.77262 16.4998 1.74328 16.445 1.73047 16.3857L1.72266 16.3252V7.20801Z" stroke="#363A45" stroke-width="0.7" stroke-linecap="round" stroke-linejoin="round"/>
<path d="M11.4609 8.6416C11.4609 11.3379 7.96094 14.8916 7.96094 14.8916C7.96094 14.8916 4.46094 11.3379 4.46094 8.6416C4.46094 7.64704 4.82969 6.69321 5.48606 5.98995C6.14244 5.28669 7.03268 4.8916 7.96094 4.8916C8.88919 4.8916 9.77943 5.28669 10.4358 5.98995C11.0922 6.69321 11.4609 7.64704 11.4609 8.6416Z" fill="#00C65E"/>
<ellipse cx="7.96094" cy="8.70662" rx="1.87" ry="1.97883" fill="white"/>
</svg>
