<svg width="18" height="18" viewBox="0 0 18 18" fill="none" xmlns="http://www.w3.org/2000/svg">
<path d="M14.0247 12.8843L5.10506 3.44928C5.10506 3.36157 5.02282 3.08745 4.97348 2.76948C4.94732 2.21286 4.73714 1.68066 4.37591 1.25637C3.73449 0.642352 2.84087 0.203768 2.1501 0.395649L2.98889 1.28378C3.11298 1.39681 3.21269 1.53398 3.28193 1.68689C3.35116 1.8398 3.38846 2.00523 3.39154 2.17305C3.39462 2.34087 3.36341 2.50756 3.29983 2.6629C3.23626 2.81825 3.14164 2.95898 3.02179 3.07649C2.89748 3.18551 2.75208 3.2678 2.59463 3.31827C2.43718 3.36873 2.27103 3.38628 2.10651 3.36983C1.94199 3.35338 1.78261 3.30327 1.63827 3.22263C1.49393 3.14199 1.36771 3.03253 1.26745 2.90106L0.428663 2.01292C0.170996 2.69273 0.582168 3.60827 1.15233 4.28259C1.55846 4.67446 2.08269 4.92116 2.64351 4.98433C3.02727 5.07204 3.35072 5.16524 3.35072 5.16524L12.232 14.5674C12.1514 14.9348 12.1621 15.3164 12.2635 15.6787C12.3648 16.041 12.5536 16.3729 12.8132 16.6452C13.0137 16.859 13.2543 17.0312 13.5214 17.152C13.7885 17.2729 14.0767 17.3399 14.3697 17.3493C14.6627 17.3587 14.9546 17.3103 15.2289 17.2069C15.5032 17.1035 15.7544 16.9471 15.9682 16.7466C16.182 16.5461 16.3543 16.3054 16.4751 16.0383C16.5959 15.7713 16.6629 15.483 16.6724 15.1901C16.6818 14.8971 16.6334 14.6051 16.53 14.3308C16.4266 14.0566 16.2701 13.8053 16.0696 13.5915C15.8122 13.3159 15.4914 13.1074 15.135 12.9841C14.7786 12.8609 14.3974 12.8266 14.0247 12.8843Z" fill="white" stroke="#363A45" stroke-width="0.7" stroke-linecap="round" stroke-linejoin="round"/>
<path d="M15.9444 1.2221L15.4784 0.756104L15.3688 0.865749L12.9511 2.68039L13.2416 2.97095L8.81742 7.41709L7.9238 6.52895L7.37558 7.07718L7.60035 7.62541L7.05212 8.17364L0.824237 14.4454C0.565453 14.7053 0.420166 15.0572 0.420166 15.424C0.420166 15.7908 0.565453 16.1426 0.824237 16.4026L0.988706 16.5725C1.11752 16.7015 1.2705 16.8038 1.43888 16.8736C1.60727 16.9434 1.78776 16.9793 1.97004 16.9793C2.15232 16.9793 2.33281 16.9434 2.50119 16.8736C2.66957 16.8038 2.82255 16.7015 2.95137 16.5725L9.74393 9.81833L10.2922 10.0431L10.8404 9.49487L9.95225 8.60674L14.4422 4.16061L14.7383 4.45117L16.5694 2.04992L16.6735 1.94028L16.2021 1.4688L15.9444 1.2221Z" fill="white" stroke="#363A45" stroke-width="0.7" stroke-linecap="round" stroke-linejoin="round"/>
<path d="M8.41381 8.58561L8.10496 8.27344L7.95552 8.4262L8.03522 8.62214L7.83596 8.82139L4.24075 12.4299C4.19557 12.4747 4.1597 12.5279 4.13522 12.5867C4.11075 12.6454 4.09814 12.7083 4.09814 12.7719C4.09814 12.8356 4.11075 12.8985 4.13522 12.9572C4.1597 13.016 4.19557 13.0692 4.24075 13.114L4.30053 13.1738C4.3453 13.219 4.39858 13.2548 4.45729 13.2793C4.516 13.3038 4.57898 13.3164 4.64258 13.3164C4.70619 13.3164 4.76917 13.3038 4.82788 13.2793C4.88659 13.2548 4.93987 13.219 4.98464 13.1738L8.78907 9.37931L8.98169 9.45902L9.13113 9.30625L8.81896 8.99408L8.41381 8.58561Z" fill="#00C65E"/>
<path d="M15.3459 15.7023C15.2284 15.8887 15.0581 16.0359 14.8567 16.1251C14.6552 16.2143 14.4317 16.2415 14.2147 16.2031C13.9978 16.1648 13.7971 16.0626 13.6385 15.9098C13.4798 15.7569 13.3703 15.5602 13.3239 15.3448C13.2775 15.1294 13.2964 14.905 13.3781 14.7004C13.4597 14.4958 13.6005 14.3201 13.7825 14.1958C13.9644 14.0716 14.1793 14.0043 14.3996 14.0027C14.62 14.0011 14.8358 14.0652 15.0195 14.1867C15.1406 14.2647 15.245 14.3658 15.3269 14.4843C15.4089 14.6027 15.4666 14.7361 15.4969 14.8768C15.5273 15.0176 15.5295 15.163 15.5036 15.3046C15.4777 15.4462 15.4241 15.5814 15.3459 15.7023Z" fill="#00C65E"/>
</svg>
