<svg width="10" height="10" viewBox="0 0 10 10" fill="none" xmlns="http://www.w3.org/2000/svg">
<mask id="path-1-inside-1_17471_10173" fill="white">
<path fill-rule="evenodd" clip-rule="evenodd" d="M7.57672 6.82907C8.23635 5.97832 8.54722 4.90813 8.4461 3.83622C8.34498 2.76431 7.83946 1.7712 7.03238 1.05893C6.2253 0.346655 5.17729 -0.0312732 4.10156 0.00202763C3.02583 0.0353285 2.00319 0.477357 1.24168 1.23819C0.479502 1.99955 0.0362043 3.02299 0.00212128 4.09997C-0.0319618 5.17695 0.345735 6.2264 1.05824 7.03446C1.77075 7.84253 2.76445 8.34839 3.83683 8.44897C4.90921 8.54954 5.97958 8.23726 6.8298 7.57576L6.85255 7.59957L9.09647 9.84492C9.14562 9.89408 9.20397 9.93309 9.26818 9.9597C9.3324 9.98631 9.40122 10 9.47073 10C9.54023 10 9.60906 9.98631 9.67327 9.9597C9.73748 9.93309 9.79583 9.89408 9.84498 9.84492C9.89413 9.79575 9.93311 9.73738 9.95971 9.67314C9.98631 9.6089 10 9.54005 10 9.47052C10 9.40098 9.98631 9.33213 9.95971 9.26789C9.93311 9.20365 9.89413 9.14528 9.84498 9.09612L7.60052 6.8513C7.5928 6.84367 7.58486 6.83626 7.57672 6.82907ZM6.47856 1.98699C6.77722 2.28094 7.01475 2.63115 7.17745 3.01739C7.34014 3.40364 7.42479 3.81829 7.42649 4.23743C7.4282 4.65657 7.34693 5.07189 7.18739 5.45946C7.02784 5.84702 6.79317 6.19914 6.49691 6.49552C6.20065 6.79189 5.84867 7.02666 5.46126 7.18627C5.07386 7.34588 4.65869 7.42717 4.23972 7.42547C3.82075 7.42376 3.40627 7.33908 3.02017 7.17632C2.63408 7.01356 2.28402 6.77594 1.99018 6.47716C1.40297 5.88007 1.0754 5.07504 1.07881 4.23743C1.08221 3.39982 1.41633 2.59749 2.00838 2.0052C2.60043 1.41291 3.40245 1.07866 4.23972 1.07525C5.077 1.07184 5.88171 1.39955 6.47856 1.98699Z"/>
</mask>
<path fill-rule="evenodd" clip-rule="evenodd" d="M7.57672 6.82907C8.23635 5.97832 8.54722 4.90813 8.4461 3.83622C8.34498 2.76431 7.83946 1.7712 7.03238 1.05893C6.2253 0.346655 5.17729 -0.0312732 4.10156 0.00202763C3.02583 0.0353285 2.00319 0.477357 1.24168 1.23819C0.479502 1.99955 0.0362043 3.02299 0.00212128 4.09997C-0.0319618 5.17695 0.345735 6.2264 1.05824 7.03446C1.77075 7.84253 2.76445 8.34839 3.83683 8.44897C4.90921 8.54954 5.97958 8.23726 6.8298 7.57576L6.85255 7.59957L9.09647 9.84492C9.14562 9.89408 9.20397 9.93309 9.26818 9.9597C9.3324 9.98631 9.40122 10 9.47073 10C9.54023 10 9.60906 9.98631 9.67327 9.9597C9.73748 9.93309 9.79583 9.89408 9.84498 9.84492C9.89413 9.79575 9.93311 9.73738 9.95971 9.67314C9.98631 9.6089 10 9.54005 10 9.47052C10 9.40098 9.98631 9.33213 9.95971 9.26789C9.93311 9.20365 9.89413 9.14528 9.84498 9.09612L7.60052 6.8513C7.5928 6.84367 7.58486 6.83626 7.57672 6.82907ZM6.47856 1.98699C6.77722 2.28094 7.01475 2.63115 7.17745 3.01739C7.34014 3.40364 7.42479 3.81829 7.42649 4.23743C7.4282 4.65657 7.34693 5.07189 7.18739 5.45946C7.02784 5.84702 6.79317 6.19914 6.49691 6.49552C6.20065 6.79189 5.84867 7.02666 5.46126 7.18627C5.07386 7.34588 4.65869 7.42717 4.23972 7.42547C3.82075 7.42376 3.40627 7.33908 3.02017 7.17632C2.63408 7.01356 2.28402 6.77594 1.99018 6.47716C1.40297 5.88007 1.0754 5.07504 1.07881 4.23743C1.08221 3.39982 1.41633 2.59749 2.00838 2.0052C2.60043 1.41291 3.40245 1.07866 4.23972 1.07525C5.077 1.07184 5.88171 1.39955 6.47856 1.98699Z" fill="#363A45"/>
<path d="M1.24168 1.23819L2.65513 2.65316L2.65526 2.65303L1.24168 1.23819ZM6.8298 7.57576L8.27604 6.19431L7.02788 4.88761L5.60167 5.99725L6.8298 7.57576ZM6.85255 7.59957L5.40631 8.98102L5.42192 8.99735L5.43789 9.01333L6.85255 7.59957ZM9.09647 9.84492L7.68181 11.2587L7.68198 11.2589L9.09647 9.84492ZM10 9.47052H12H10ZM9.84498 9.09612L11.2595 7.68218L11.2593 7.68202L9.84498 9.09612ZM7.60052 6.8513L9.01488 5.43716L9.00525 5.42766L7.60052 6.8513ZM6.47856 1.98699L7.8815 0.561586V0.561586L6.47856 1.98699ZM1.99018 6.47716L0.564218 7.87952H0.564219L1.99018 6.47716ZM9.15728 8.05456C10.1285 6.80195 10.5861 5.22638 10.4373 3.64838L6.45494 4.02406C6.50832 4.58988 6.3442 5.1547 5.99616 5.60358L9.15728 8.05456ZM10.4373 3.64838C10.2884 2.07037 9.54418 0.608194 8.35577 -0.440614L5.70898 2.55847C6.13473 2.93421 6.40156 3.45825 6.45494 4.02406L10.4373 3.64838ZM8.35577 -0.440614C7.16734 -1.48944 5.62399 -2.04606 4.03968 -1.99701L4.16345 2.00107C4.7306 1.98351 5.28326 2.18275 5.70898 2.55847L8.35577 -0.440614ZM4.03968 -1.99701C2.45537 -1.94797 0.949402 -1.29696 -0.171903 -0.176658L2.65526 2.65303C3.05698 2.25167 3.59629 2.01863 4.16345 2.00107L4.03968 -1.99701ZM-0.171778 -0.176784C-1.29408 0.944316 -1.9467 2.45119 -1.99688 4.03671L2.00112 4.16323C2.01911 3.5948 2.25308 3.05478 2.65513 2.65316L-0.171778 -0.176784ZM-1.99688 4.03671C-2.04705 5.62223 -1.49102 7.16735 -0.441884 8.35719L2.55837 5.71173C2.18249 5.28544 1.98313 4.73167 2.00112 4.16323L-1.99688 4.03671ZM-0.441884 8.35719C0.607276 9.54706 2.07064 10.2921 3.65008 10.4402L4.02358 6.4577C3.45825 6.40468 2.93423 6.13799 2.55837 5.71173L-0.441884 8.35719ZM3.65008 10.4402C5.22952 10.5884 6.80589 10.1284 8.05793 9.15426L5.60167 5.99725C5.15327 6.34612 4.58891 6.51072 4.02358 6.4577L3.65008 10.4402ZM5.38356 8.9572L5.40631 8.98102L8.29879 6.21812L8.27604 6.19431L5.38356 8.9572ZM5.43789 9.01333L7.68181 11.2587L10.5111 8.43115L8.26721 6.1858L5.43789 9.01333ZM7.68198 11.2589C7.9168 11.4938 8.19563 11.6802 8.50256 11.8073L10.0338 8.11204C10.2123 8.18601 10.3744 8.2944 10.511 8.43099L7.68198 11.2589ZM8.50256 11.8073C8.80949 11.9345 9.13847 12 9.47073 12V8C9.66397 8 9.85531 8.03808 10.0338 8.11204L8.50256 11.8073ZM9.47073 12C9.80298 12 10.132 11.9345 10.4389 11.8073L8.90764 8.11204C9.08614 8.03808 9.27748 8 9.47073 8V12ZM10.4389 11.8073C10.7458 11.6802 11.0247 11.4938 11.2595 11.2589L8.43048 8.43099C8.56701 8.2944 8.72914 8.18601 8.90764 8.11204L10.4389 11.8073ZM11.2595 11.2589C11.4943 11.0239 11.6805 10.7451 11.8076 10.4382L8.11184 8.90803C8.18569 8.72969 8.29394 8.56758 8.43048 8.43099L11.2595 11.2589ZM11.8076 10.4382C11.9346 10.1314 12 9.8026 12 9.47052H8C8 9.2775 8.038 9.08637 8.11184 8.90803L11.8076 10.4382ZM12 9.47052C12 9.13844 11.9346 8.8096 11.8076 8.50279L8.11184 10.033C8.038 9.85466 8 9.66353 8 9.47052H12ZM11.8076 8.50279C11.6805 8.19596 11.4943 7.91711 11.2595 7.68218L8.43048 10.51C8.29394 10.3735 8.18569 10.2113 8.11184 10.033L11.8076 8.50279ZM11.2593 7.68202L9.01485 5.4372L6.1862 8.2654L8.43065 10.5102L11.2593 7.68202ZM9.00525 5.42766C8.97136 5.39422 8.93654 5.3617 8.90081 5.33014L6.25263 8.328C6.23318 8.31081 6.21423 8.29312 6.1958 8.27494L9.00525 5.42766ZM5.07563 3.41239C5.18612 3.52115 5.27405 3.65076 5.33429 3.79377L9.02061 2.24102C8.75546 1.61153 8.36832 1.04074 7.8815 0.561586L5.07563 3.41239ZM5.33429 3.79377C5.39453 3.93678 5.42588 4.09034 5.42651 4.24557L9.42647 4.22929C9.42369 3.54625 9.28576 2.8705 9.02061 2.24102L5.33429 3.79377ZM5.42651 4.24557C5.42714 4.4008 5.39704 4.55461 5.33797 4.69811L9.03681 6.2208C9.29683 5.58918 9.42926 4.91233 9.42647 4.22929L5.42651 4.24557ZM5.33797 4.69811C5.27889 4.84161 5.19203 4.97193 5.08242 5.08159L7.91141 7.90945C8.39431 7.42635 8.77679 6.85243 9.03681 6.2208L5.33797 4.69811ZM5.08242 5.08159C4.97281 5.19124 4.84263 5.27805 4.6994 5.33706L6.22313 9.03547C6.85471 8.77526 7.4285 8.39255 7.91141 7.90945L5.08242 5.08159ZM4.6994 5.33706C4.55618 5.39607 4.40272 5.42611 4.24787 5.42548L4.23158 9.42545C4.91467 9.42823 5.59154 9.29569 6.22313 9.03547L4.6994 5.33706ZM4.24787 5.42548C4.09303 5.42485 3.93982 5.39356 3.79707 5.33338L2.24327 9.01926C2.87272 9.28461 3.54848 9.42267 4.23158 9.42545L4.24787 5.42548ZM3.79707 5.33338C3.65433 5.27321 3.52486 5.18534 3.41614 5.07479L0.564219 7.87952C1.04318 8.36654 1.61383 8.75392 2.24327 9.01926L3.79707 5.33338ZM3.41614 5.07479C3.19887 4.85386 3.07753 4.55583 3.07879 4.24557L-0.921178 4.22929C-0.926734 5.59425 -0.392927 6.90627 0.564218 7.87952L3.41614 5.07479ZM3.07879 4.24557C3.08005 3.93531 3.20382 3.63828 3.42288 3.41913L0.593888 0.591268C-0.371152 1.55669 -0.915623 2.86433 -0.921178 4.22929L3.07879 4.24557ZM3.42288 3.41913C3.64191 3.20001 3.93846 3.07649 4.24787 3.07523L4.23158 -0.924733C2.86644 -0.919172 1.55895 -0.374183 0.593888 0.591268L3.42288 3.41913ZM4.24787 3.07523C4.55729 3.07397 4.85482 3.19507 5.07563 3.41239L7.8815 0.561586C6.9086 -0.395975 5.59672 -0.930294 4.23158 -0.924733L4.24787 3.07523Z" fill="#363A45" mask="url(#path-1-inside-1_17471_10173)"/>
</svg>
