<svg width="200" height="158" viewBox="0 0 200 158" fill="none" xmlns="http://www.w3.org/2000/svg">
<path opacity="0.2" d="M97.4172 111.317C122.208 103.744 144.814 92.8839 162.409 83.0579C180.846 72.7619 178.051 51.4321 159.475 41.3886C151.8 37.2386 143.399 31.021 132.615 19.5838C131.445 18.3427 130.414 16.9433 129.372 15.5923C120.905 4.60722 106.431 2.00764 92.6444 23.437C81.3458 40.9987 74.6107 47.8747 72.131 50.0943C71.4242 50.727 70.6815 51.2997 69.9533 51.9077C66.3777 54.8931 54.8089 64.4757 47.8889 69.311C39.6268 75.0842 17.0158 84.4587 28.7389 97.8418C42.5041 111.348 55.7859 124.036 97.4172 111.317Z" fill="#FFB762"/>
<path d="M94.4092 102.25H33.4948L41.4773 39.0945H86.4266L94.4092 102.25Z" fill="#FFB762"/>
<path d="M102.002 102.25H41.0973L49.0799 39.0945H94.0192L102.002 102.25Z" fill="#FFB762"/>
<path d="M75.2321 39.3067H54.3778V24.9887C54.4576 22.313 55.5912 19.7733 57.538 17.9086C59.4847 16.0438 62.0915 15.0007 64.805 15.0007C67.5185 15.0007 70.1252 16.0438 72.0719 17.9086C74.0187 19.7733 75.1523 22.313 75.2321 24.9887V39.3067ZM59.553 34.2014H70.0569V24.9887C70.0863 24.2902 69.9722 23.5931 69.7215 22.9393C69.4708 22.2854 69.0887 21.6884 68.5981 21.1839C68.1075 20.6795 67.5186 20.2781 66.8667 20.0039C66.2149 19.7297 65.5136 19.5883 64.805 19.5883C64.0963 19.5883 63.395 19.7297 62.7432 20.0039C62.0913 20.2781 61.5024 20.6795 61.0118 21.1839C60.5212 21.6884 60.1391 22.2854 59.8884 22.9393C59.6377 23.5931 59.5236 24.2902 59.553 24.9887V34.2014Z" fill="#FFB762"/>
<path d="M76.7495 41.6043H55.8953V27.2864C55.8542 25.9101 56.0935 24.5397 56.5991 23.2563C57.1046 21.9729 57.8661 20.8026 58.8384 19.8148C59.8107 18.827 60.9741 18.0417 62.2596 17.5054C63.5451 16.9692 64.9267 16.6929 66.3224 16.6929C67.7181 16.6929 69.0997 16.9692 70.3852 17.5054C71.6707 18.0417 72.8341 18.827 73.8064 19.8148C74.7787 20.8026 75.5402 21.9729 76.0457 23.2563C76.5513 24.5397 76.7906 25.9101 76.7495 27.2864V41.6043ZM61.0704 36.4991H71.5744V27.2864C71.6037 26.5879 71.4896 25.8908 71.2389 25.237C70.9882 24.5831 70.6061 23.986 70.1155 23.4816C69.6249 22.9771 69.036 22.5758 68.3842 22.3016C67.7323 22.0274 67.031 21.886 66.3224 21.886C65.6138 21.886 64.9125 22.0274 64.2606 22.3016C63.6088 22.5758 63.0199 22.9771 62.5293 23.4816C62.0387 23.986 61.6566 24.5831 61.4059 25.237C61.1552 25.8908 61.0411 26.5879 61.0704 27.2864V36.4991Z" fill="white"/>
<path d="M100.03 102.25H93.7194L86.3639 39.0945H92.6743L100.03 102.25Z" fill="white"/>
<path d="M25.7161 77.1388C25.9942 76.0821 26.7832 75.235 27.8175 74.8826L41.9985 70.051C43.0323 69.6988 44.1737 69.8876 45.0389 70.5539L50.0025 74.376C51.0193 75.159 51.7824 76.2245 52.1962 77.4392L61.0071 103.3C61.5877 105.004 60.6768 106.856 58.9726 107.437L37.199 114.855C35.4947 115.436 33.6424 114.525 33.0617 112.821L24.2533 86.9677C23.8399 85.754 23.7934 84.4455 24.1196 83.2056L25.7161 77.1388Z" fill="#FE8A49"/>
<circle cx="42.2053" cy="92.2916" r="8.28426" transform="rotate(-39.2121 42.2053 92.2916)" fill="white"/>
<path d="M52.623 73.5C51.9767 73.1544 51.2197 73.0794 50.5181 73.2915C49.8166 73.5035 49.2279 73.9853 48.8813 74.6311L41.5488 88.5037L37.5506 85.1848C36.9805 84.7608 36.269 84.5725 35.5638 84.6589C34.8585 84.7452 34.2135 85.0997 33.7626 85.6487C33.3116 86.1977 33.0891 86.8993 33.1413 87.6079C33.1936 88.3165 33.5165 88.9778 34.0431 89.4548L40.4014 94.6632C40.6081 94.8939 40.8554 95.0846 41.1311 95.2257C41.701 95.5285 42.3607 95.617 42.9903 95.4749C43.4569 95.3921 43.8927 95.1855 44.2522 94.8766C44.6117 94.5678 44.8817 94.1681 45.0339 93.7193L53.7617 77.2462C54.1064 76.5982 54.1801 75.84 53.9667 75.1377C53.7532 74.4355 53.27 73.8466 52.623 73.5Z" fill="#00C65E"/>
<path d="M14.0144 35.1191L23.6153 33.7611L14.286 30.6649L12.7515 21.7429L9.72316 30.2711L0 31.6969L9.20712 34.7117L10.8367 44.1361L14.0144 35.1191Z" fill="#00C65E"/>
<path d="M120.959 104.146L125.555 103.496L121.089 102.014L120.354 97.7429L118.905 101.825L114.25 102.508L118.658 103.951L119.438 108.463L120.959 104.146Z" fill="#00C65E"/>
</svg>
