<svg width="197" height="147" viewBox="0 0 197 147" fill="none" xmlns="http://www.w3.org/2000/svg">
<path opacity="0.3" d="M56.3106 116.726C72.6439 117.68 97.7388 111.139 119.441 104.07C140.047 97.3587 141.066 76.127 125.456 61.0938C120.468 56.2898 115.146 49.6961 108.972 39.6124C108.081 38.1577 107.345 36.5895 106.662 35.0267C100.791 21.6025 87.1681 4.08045 76.9086 24.3429C66.0323 45.8235 69.8189 56.146 49.718 75.4613C38.1774 86.5508 26.0146 111.962 41.7178 115.057C45.6057 115.823 50.3768 116.38 56.3106 116.726Z" fill="#F89358"/>
<path d="M149.751 14.1401H127.758C124.117 14.1401 121.166 16.9304 121.166 20.3724V81.2895C121.166 84.7315 124.117 87.5218 127.758 87.5218H149.751C153.392 87.5218 156.343 84.7315 156.343 81.2895V20.3724C156.343 16.9304 153.392 14.1401 149.751 14.1401Z" fill="#00C65E"/>
<path d="M156.292 20.3724C156.292 16.9304 153.341 14.1401 149.7 14.1401C148.761 27.0785 147.292 41.3898 142.843 59.1913C138.394 76.9929 130.392 87.5218 134.032 87.5218H149.7C153.341 87.5218 156.292 84.7315 156.292 81.2895V20.3724Z" fill="#08A636"/>
<path d="M156.338 38.1362H121.161V39.7513H156.338V38.1362Z" fill="#FAFAFA"/>
<path d="M125.113 45.9401V52.9331H127.451V45.9401H125.113Z" fill="#FAFAFA"/>
<path d="M125.102 24.3855V31.3784H127.441V24.3855H125.102Z" fill="#FAFAFA"/>
<path d="M182.374 61.2465L168.893 56.1155C167.433 55.5595 165.809 56.2652 165.266 57.6916L153.667 88.1649C153.124 89.5913 153.868 91.1983 155.329 91.7542L168.81 96.8853C170.27 97.4412 171.895 96.7355 172.438 95.3091L184.036 64.8358C184.579 63.4094 183.835 61.8024 182.374 61.2465Z" fill="white"/>
<path d="M182.374 61.2452L180.633 60.5826C180.633 60.5826 169.807 86.2045 161.381 94.0563L168.81 96.884C170.27 97.4399 171.895 96.7342 172.438 95.3078L184.036 64.8345C184.579 63.4081 183.835 61.8011 182.374 61.2452Z" fill="#CCEFDB"/>
<path d="M171.382 57.062L179.516 60.1579L179.245 60.8679C179.196 60.9953 179.121 61.1114 179.025 61.2094C178.93 61.3075 178.815 61.3855 178.687 61.4389C178.559 61.4923 178.422 61.5201 178.283 61.5206C178.143 61.5211 178.005 61.4943 177.875 61.4419L171.732 59.1039C171.471 59.0045 171.259 58.8077 171.143 58.557C171.027 58.3062 171.016 58.022 171.113 57.7669L171.382 57.062Z" fill="#00C65E"/>
<path d="M177.722 61.8442L171.579 59.5062C171.211 59.3658 170.911 59.0881 170.747 58.7341C170.584 58.3801 170.569 57.9789 170.706 57.6186L171.129 56.5073L180.084 59.916L179.661 61.0273C179.593 61.2083 179.487 61.3734 179.352 61.5129C179.217 61.6524 179.054 61.7634 178.873 61.8395C178.693 61.9157 178.498 61.9553 178.3 61.9561C178.102 61.9569 177.906 61.9188 177.722 61.8442ZM171.642 57.6156L171.522 57.9294C171.466 58.0782 171.472 58.2438 171.54 58.39C171.607 58.5361 171.731 58.6508 171.883 58.7088L178.026 61.0467C178.178 61.1047 178.346 61.1012 178.494 61.037C178.642 60.9728 178.757 60.8532 178.813 60.7045L178.933 60.3906L171.642 57.6156Z" fill="#00C65E"/>
<path d="M168.616 97.3974L155.135 92.2663C154.297 91.9472 153.617 91.316 153.244 90.5115C152.872 89.7069 152.838 88.795 153.149 87.9763L164.752 57.4927C165.063 56.674 165.695 56.0156 166.508 55.6623C167.321 55.309 168.249 55.2898 169.087 55.6088L182.568 60.7399C183.407 61.059 184.087 61.6902 184.459 62.4947C184.832 63.2993 184.866 64.2112 184.554 65.0299L172.956 95.5032C172.803 95.91 172.569 96.2818 172.267 96.5973C171.966 96.9128 171.604 97.1657 171.2 97.3417C170.797 97.5177 170.362 97.6132 169.918 97.6227C169.475 97.6323 169.032 97.5557 168.616 97.3974ZM168.7 56.6275C168.141 56.4148 167.522 56.4276 166.98 56.6632C166.438 56.8987 166.017 57.3376 165.809 57.8834L154.207 88.367C153.999 88.9128 154.022 89.5208 154.27 90.0571C154.518 90.5935 154.972 91.0143 155.531 91.227L169.012 96.3581C169.571 96.5708 170.189 96.558 170.731 96.3225C171.273 96.0869 171.695 95.648 171.902 95.1022L183.501 64.6289C183.709 64.0831 183.686 63.4751 183.437 62.9388C183.189 62.4024 182.736 61.9816 182.177 61.7689L168.7 56.6275Z" fill="#00C65E"/>
<path d="M192.046 103.471L196.691 102.344L191.984 101.205L190.855 96.7573L189.726 101.205L185.019 102.344L189.668 103.471L190.855 108.156L192.046 103.471Z" fill="#00C65E"/>
<rect x="99.5803" y="29.6555" width="1.57622" height="21.8693" transform="rotate(7.54978 99.5803 29.6555)" fill="#00C65E"/>
<rect width="1.57622" height="15.3244" transform="matrix(-0.60945 0.792824 0.792824 0.60945 85.1956 42.6321)" fill="#00C65E"/>
<rect x="100.829" y="30.925" width="1.57622" height="21.8693" transform="rotate(7.54978 100.829 30.925)" fill="white"/>
<rect width="1.57622" height="15.3244" transform="matrix(-0.60945 0.792824 0.792824 0.60945 86.9485 42.7844)" fill="white"/>
<path d="M117.287 88.2699C116.763 88.4438 116.222 88.3423 115.724 88.0975C115.473 87.9782 115.249 87.8084 115.065 87.5987C114.881 87.389 114.742 87.1438 114.656 86.8784L113.554 84.211C113.427 83.9621 113.353 83.6901 113.335 83.4118C113.317 83.1336 113.356 82.855 113.45 82.5933C113.629 82.0688 114.006 81.6374 114.5 81.3913L103.044 86.1248C103.578 85.9591 104.165 86.0107 104.662 86.2742C104.915 86.3961 105.142 86.5691 105.327 86.7824C105.513 86.9958 105.653 87.245 105.739 87.5145L106.832 90.1608C107.005 90.6734 107.01 91.2274 106.847 91.7409C106.683 92.2567 106.343 92.696 105.886 92.9805L117.287 88.2699Z" fill="white"/>
<path d="M113.566 43.9675L77.3148 58.9462C76.5458 59.3393 75.9622 60.0191 75.6901 60.8387C75.418 61.6584 75.4791 62.5522 75.8604 63.3272L86.5508 89.1996C86.8278 90.0177 87.4154 90.694 88.1867 91.0825C88.958 91.471 89.8512 91.5406 90.6734 91.2762L126.924 76.2976C127.699 75.9081 128.289 75.2284 128.565 74.4063C128.842 73.5842 128.782 72.6863 128.4 71.9079L117.709 46.0355C117.431 45.2141 116.839 44.5361 116.063 44.1488C115.287 43.7615 114.389 43.6963 113.566 43.9675Z" fill="white"/>
<path d="M99.8291 95.4955L123.398 85.7568C124.046 85.4892 124.788 85.7973 125.055 86.4449L125.169 86.7205C125.437 87.3681 125.129 88.11 124.481 88.3776L100.912 98.1163C100.264 98.3838 99.5225 98.0758 99.2549 97.4282L99.141 97.1526C98.8734 96.505 99.1815 95.7631 99.8291 95.4955Z" fill="#F7F7F7"/>
<path d="M126.128 72.8916C125.884 73.6166 125.364 74.216 124.68 74.5595L110.04 80.6088C114.883 75.2742 117.313 66.9058 112.899 46.0478C113.626 45.8086 114.418 45.8661 115.102 46.2076C115.786 46.5492 116.308 47.1472 116.554 47.8715L125.981 70.6882C126.319 71.3747 126.371 72.1666 126.128 72.8916Z" fill="#00C65E"/>
<rect x="80.4469" y="83.5234" width="99.6385" height="26.4763" fill="#FFB762"/>
<rect x="165.705" y="83.5229" width="3.01772" height="26.4763" fill="white"/>
<rect x="174.325" y="83.5229" width="1.24555" height="26.4763" fill="white"/>
<rect x="95.2666" y="83.5229" width="1.24555" height="26.4763" fill="white"/>
<rect x="86.6471" y="83.5229" width="3.01772" height="26.4763" fill="#F89358"/>
<rect x="80.4469" y="92.4292" width="8.6654" height="99.6385" transform="rotate(-90 80.4469 92.4292)" fill="#F89358"/>
</svg>
