<svg width="198" height="144" viewBox="0 0 198 144" fill="none" xmlns="http://www.w3.org/2000/svg">
<path d="M101.597 103.157C123.201 98.6323 143.194 91.2625 159.276 84.1339C178.419 75.6483 177.221 54.6004 160.115 42.5234C153.774 38.0464 146.865 31.6906 138.344 21.1021C137.322 19.8318 136.437 18.426 135.539 17.0652C128.319 6.12708 115.199 2.4442 101.53 21.111C90.5651 36.0864 84.1011 41.9511 81.5975 43.9227C80.8178 44.5367 79.9978 45.077 79.1913 45.6553C75.5951 48.2339 64.7668 55.9262 58.2924 59.7435C50.4425 64.3718 29.2742 71.0706 39.3557 84.5418C51.3014 98.3088 62.8446 111.272 101.597 103.157Z" fill="#FFEEE3"/>
<path d="M93.7521 44.3589H36.1884V100H93.7521V44.3589Z" fill="#03CC60"/>
<path d="M67.8937 44.3589H60.1078V52.1566H67.8937V44.3589Z" fill="white"/>
<path d="M90.4185 54.5745H76.7841V60.8267H90.4185V54.5745Z" fill="white"/>
<path d="M87.8918 93.9565H66.8203V95.6228H87.8918V93.9565Z" fill="white"/>
<path d="M87.8918 88.9839H73.4501V90.6502H87.8918V88.9839Z" fill="white"/>
<path d="M87.8919 84.0228H79.0383V85.6891H87.8919V84.0228Z" fill="white"/>
<path d="M60.8108 67.72L45.4316 67.2468L60.8108 66.9951V67.72Z" fill="#03CC60"/>
<path d="M62.7788 73.5774L46.0508 73.3257L62.7788 72.7417V73.5774Z" fill="#03CC60"/>
<path d="M58.6072 78.1238L43.228 77.8721L58.6072 77.6204V78.1238Z" fill="#03CC60"/>
<path d="M60.7426 69.9081H60.1124H59.7583L45.3686 69.4651L59.8468 69.2285H59.9249C60.779 69.1228 61.555 68.6748 61.5186 67.8492C61.4769 66.8424 59.602 65.9514 55.946 65.9514H41.3377L49.2538 63.0669C49.2538 63.0669 51.9619 62.0248 50.936 59.7343C50.0923 57.8516 46.7123 58.9591 46.7123 58.9591C46.7123 58.9591 32.9163 63.4897 28.5833 65.5637C27.0306 66.3697 25.674 67.487 24.6044 68.8409L0.0727949 65.5569C0.0727949 65.5569 1.0252e-06 66.8627 1.0252e-06 67.8492C-0.000814927 73.4453 0.485302 78.5576 1.91409 83.9038L24.9742 80.6105C25.5117 81.6645 26.442 82.4828 27.5782 82.901C29.7759 83.8323 32.7861 83.9078 36.8484 84.0538L53.1337 84.089C57.6751 84.089 59.425 82.8657 59.425 81.874C59.425 81.2548 59.1854 80.3638 56.7585 80.2782L43.1761 80.0567L58.0396 79.8151C62.1748 79.6842 63.7997 78.4408 63.7997 77.3384C63.7997 76.6638 63.1383 75.8281 61.2686 75.7375H60.8415L45.9988 75.516L61.2738 75.0126C63.8778 74.922 66.4505 74.3934 66.4505 72.3194C66.4713 70.5676 63.7788 70.0289 60.7426 69.9081Z" fill="url(#paint0_linear_1689_36919)"/>
<rect x="114.434" y="36.3673" width="16.9896" height="33.5766" transform="rotate(-60 114.434 36.3673)" fill="#0FC645" stroke="white"/>
<path d="M124.439 36.8683L122.206 35.6392L123.086 34.0419C123.261 33.7244 123.516 33.519 123.847 33.4232C124.177 33.3273 124.503 33.3644 124.82 33.5393C125.138 33.7141 125.343 33.9692 125.439 34.3C125.532 34.6354 125.49 34.9582 125.318 35.271L124.439 36.8683ZM126.29 35.806C126.634 35.1804 126.722 34.5494 126.549 33.9105C126.378 33.279 125.995 32.7965 125.407 32.4729C124.82 32.1493 124.207 32.0838 123.577 32.2744C122.95 32.4722 122.459 32.8814 122.114 33.507L120.645 36.1754L123.849 37.9394L123.421 38.7167L124.393 39.2516L124.821 38.4743L125.498 38.8475L125.07 39.6248L126.042 40.1597L126.47 39.3824L127.442 39.9174L128.031 38.8463L127.06 38.3113L128.26 36.1311L127.289 35.5962L126.088 37.7764L125.41 37.4032L126.29 35.806Z" fill="white"/>
<rect x="118.703" y="22.1474" width="16.9896" height="33.5766" transform="rotate(-30 118.703 22.1474)" fill="#0FC645" stroke="white"/>
<path d="M127.412 28.312L126.108 26.1227L127.675 25.1896C127.986 25.0041 128.31 24.956 128.644 25.0406C128.978 25.1252 129.24 25.3218 129.425 25.6332C129.611 25.9447 129.659 26.2687 129.574 26.6024C129.485 26.939 129.286 27.1963 128.979 27.379L127.412 28.312ZM129.546 28.3319C130.16 27.9665 130.555 27.4667 130.729 26.8279C130.901 26.1966 130.814 25.5867 130.471 25.0103C130.128 24.4339 129.633 24.0676 128.993 23.9134C128.351 23.7666 127.721 23.8712 127.107 24.2367L124.49 25.7955L126.362 28.9378L125.6 29.3918L126.167 30.3447L126.929 29.8907L127.325 30.5554L126.563 31.0094L127.131 31.9624L127.893 31.5083L128.46 32.4612L129.511 31.8355L128.943 30.8826L131.082 29.609L130.514 28.6561L128.376 29.9297L127.98 29.265L129.546 28.3319Z" fill="white"/>
<rect x="128.585" y="13.8254" width="16.9896" height="33.5766" transform="rotate(-4.13873 128.585 13.8254)" fill="#0FC645" stroke="white"/>
<path d="M137.155 24.4552L137.021 21.9104L138.842 21.8148C139.204 21.7957 139.513 21.9041 139.769 22.1345C140.025 22.3648 140.165 22.6609 140.184 23.0228C140.203 23.3848 140.095 23.6939 139.864 23.9499C139.629 24.2061 139.332 24.3408 138.976 24.3596L137.155 24.4552ZM139.034 25.4672C139.747 25.4297 140.33 25.1715 140.781 24.6873C141.227 24.2087 141.435 23.6289 141.4 22.959C141.365 22.289 141.097 21.7342 140.603 21.2996C140.104 20.8708 139.497 20.6697 138.784 20.7071L135.742 20.867L135.934 24.5194L135.048 24.566L135.106 25.6736L135.992 25.627L136.033 26.3997L135.147 26.4462L135.205 27.5538L136.091 27.5073L136.149 28.6149L137.37 28.5507L137.312 27.4431L139.797 27.3125L139.739 26.2049L137.254 26.3355L137.213 25.5629L139.034 25.4672Z" fill="white"/>
<path d="M131.635 62.0587C132.568 63.1189 146.695 62.376 150.639 61.699C156.651 60.6671 158.024 59.0984 163.837 58.8393C172.62 58.4478 173.745 59.2934 183.403 60.0876C183.403 60.0876 184.238 57.1652 184.556 51.79C184.874 46.4149 184.556 41.1441 184.556 41.1441C182.93 40.6628 172.666 44.2666 164.762 44.0951C160.329 43.999 157.092 43.3337 155.887 42.0101C155.493 41.5771 154.029 39.266 152.376 37.614C151.055 36.2924 148.802 35.1884 147.671 35.0308L147.859 39.5646C147.859 39.5646 139.772 39.8075 133.611 39.7367C127.451 39.6659 129.058 43.7591 130.632 45.8146C128.342 48.0097 129.579 50.6434 130.484 51.6859C128.643 53.9046 130.484 56.1508 131.635 56.9966C131.635 56.9966 129.209 59.3028 131.635 62.0587Z" fill="url(#paint1_linear_1689_36919)"/>
<defs>
<linearGradient id="paint0_linear_1689_36919" x1="26.6443" y1="81.0493" x2="6.90658" y2="81.0493" gradientUnits="userSpaceOnUse">
<stop stop-color="#F3CEB4"/>
<stop offset="1" stop-color="#F3CEB4" stop-opacity="0"/>
</linearGradient>
<linearGradient id="paint1_linear_1689_36919" x1="163.742" y1="57.5782" x2="184.697" y2="57.5782" gradientUnits="userSpaceOnUse">
<stop stop-color="#FBCFB1"/>
<stop offset="1" stop-color="#FBCFB1" stop-opacity="0"/>
</linearGradient>
</defs>
</svg>
