<svg width="124" height="133" viewBox="0 0 124 133" fill="none" xmlns="http://www.w3.org/2000/svg">
<path opacity="0.3" d="M71.6977 92.9592C91.6859 77.8263 105.511 57.0555 113.636 42.1765C118.828 32.6681 112.514 21.3154 101.957 23.7477C91.8329 26.0802 82.9171 30.5217 61.6977 27.5225C60.8668 27.405 60.026 27.2082 59.2165 26.987C46.9287 23.6301 34.6701 26.0193 32.1311 44.9796C30.2029 59.3794 28.3137 65.9299 27.4487 68.3888C27.1528 69.2301 26.8217 70.0546 26.5268 70.8962C25.5362 73.7233 22.9484 80.6707 19.8855 85.4311C15.9584 91.5346 0.0819878 98.6272 13.1187 105.102C27.6623 111.156 46.2457 112.229 71.6977 92.9592Z" fill="#FFB762"/>
<path d="M75.5054 91.6712H38.4822V33.7175C38.4891 32.972 38.8019 32.2548 39.3611 31.7024C39.6785 31.3672 40.0731 31.0974 40.5178 30.9115C40.9625 30.7255 41.4468 30.6277 41.9377 30.6248H72.0378C72.491 30.6248 72.9398 30.7048 73.3584 30.8604C73.7769 31.0159 74.1571 31.2439 74.477 31.5312C74.7969 31.8186 75.0503 32.1596 75.2226 32.5348C75.395 32.9099 75.4829 33.3119 75.4813 33.7175L75.5054 91.6712Z" fill="white"/>
<path d="M33.3981 25.5783L41.0081 23.8063L33.3981 22.0125L31.4522 15.0005L29.6367 22.0125L22.0267 23.8063L29.6367 25.5783L31.4522 32.9708L33.3981 25.5783Z" fill="#F89358"/>
<path d="M87.3342 36.7397L91.824 35.6526L87.3233 34.5654L86.2362 30.4343L85.1491 34.5654L80.6375 35.6526L85.0947 36.7397L86.1818 41.0882L87.3342 36.7397Z" fill="#00C65E"/>
<path d="M75.506 94.4771H42.0767V36.0112C42.0829 35.2591 42.3653 34.5356 42.8703 33.9782C43.1569 33.6402 43.5131 33.368 43.9147 33.1803C44.3162 32.9927 44.7535 32.8941 45.1967 32.8911H72.375C72.7843 32.8911 73.1895 32.9719 73.5674 33.1288C73.9453 33.2858 74.2886 33.5157 74.5774 33.8056C74.8663 34.0955 75.0951 34.4395 75.2507 34.818C75.4063 35.1965 75.4857 35.602 75.4842 36.0112L75.506 94.4771Z" fill="#00C65E"/>
<path d="M75.5055 94.4753H42.0762V36.0093C42.0762 34.2808 44.6527 63.0137 50.8603 71.7434C53.3572 75.1671 56.698 77.8862 60.5575 79.6359C65.2866 81.6581 70.3842 82.6761 75.5273 82.6256L75.5055 94.4753Z" fill="#08A636"/>
<path d="M65.3716 40.3254V47.2613H69.9267V40.3254H65.3716Z" fill="white"/>
<path d="M52.4472 40.3257H47.8921V47.2616H52.4472V40.3257Z" fill="white"/>
<path d="M56.6313 40.3254V47.2613H61.1864V40.3254H56.6313Z" fill="white"/>
<path d="M65.3708 52.7302V59.7205H69.9259V52.7302H65.3708Z" fill="white"/>
<path d="M52.4455 52.7305H47.8904V59.6664H52.4455V52.7305Z" fill="white"/>
<path d="M56.6304 52.7302V59.7205H61.1855V52.7302H56.6304Z" fill="white"/>
<path d="M65.372 65.1912V72.1271H69.9271V65.1912H65.372Z" fill="white"/>
<path d="M56.6316 65.1912V72.1271H61.1867V65.1912H56.6316Z" fill="white"/>
<path d="M65.3708 77.5977V84.5336H69.9259V77.5977H65.3708Z" fill="white"/>
<rect x="44.355" y="75.9731" width="8.60133" height="8.94662" fill="#F89358"/>
<path d="M48.5533 80.1667C48.2942 80.1667 48.0919 80.2126 47.9461 80.3043L48.0001 79.5866H49.603V78.8661H47.2554L47.1177 81.0788L47.6979 81.1328L47.7573 81.0545C47.7977 81.0059 47.8706 80.9547 47.9758 80.9034C48.0784 80.8548 48.1971 80.8278 48.332 80.8278C48.5236 80.8278 48.6828 80.8899 48.8069 81.0113C48.9311 81.1355 48.9931 81.2866 48.9931 81.4647C48.9931 81.6454 48.9365 81.7912 48.8177 81.9045C48.699 82.0178 48.5371 82.0718 48.3293 82.0718C48.1674 82.0718 48.0109 82.0367 47.8544 81.9639C47.7006 81.8937 47.6007 81.837 47.5522 81.7939C47.5063 81.7507 47.4712 81.7156 47.4469 81.6859L46.9504 82.2094L47.0017 82.2715C47.0368 82.3173 47.0935 82.3686 47.1717 82.428C47.2527 82.4873 47.3444 82.544 47.4496 82.6034C47.5549 82.6627 47.6925 82.714 47.8598 82.7572C48.0271 82.8004 48.2025 82.8192 48.386 82.8192C48.8231 82.8192 49.1766 82.6924 49.4464 82.4361C49.7163 82.1797 49.8485 81.8559 49.8485 81.4647C49.8485 81.0923 49.7271 80.7847 49.4788 80.5364C49.2333 80.2909 48.9257 80.1667 48.5533 80.1667Z" fill="white"/>
<path d="M20.4335 77.9008L29.788 77.9037C29.788 77.9037 26.9815 83.7535 26.6039 85.7675C26.2262 87.7816 25.7968 93.1015 25.7968 93.1015C25.6739 94.7645 25.6197 98.9584 25.474 102.753C25.9717 102.861 28.0213 103.385 28.0213 104.172C28.0213 104.492 28.0774 105.223 28.0213 105.847L21.586 105.847L21.4633 93.2229C21.2958 91.245 20.4335 77.9008 20.4335 77.9008Z" fill="#F1A74F"/>
<path d="M19.7438 67.2759C19.603 62.7333 20.2985 61.778 21.1363 61.3841C21.709 61.1148 23.8258 60.7078 25.9126 61.6234C26.8436 62.0319 28.4926 62.9474 29.6971 65.2156C30.4316 66.5988 30.8323 67.9947 31.1576 70.6618L29.8984 70.8087L27.2772 71.1637L29.8984 73.3823L29.6971 78.5785L20.4417 77.9445C19.8965 74.0448 19.8539 70.8321 19.7438 67.2759Z" fill="#00C65E"/>
<path d="M20.4335 77.9008L29.788 77.9037C29.788 77.9037 29.1854 82.7392 28.7305 85.8728C28.2756 89.0065 27.6202 93.1015 27.6202 93.1015C27.4973 94.7644 27.4431 98.9584 27.2973 102.753C27.7951 102.861 29.8447 103.385 29.8447 104.172C29.8447 104.492 29.9008 105.223 29.8447 105.847L23.4093 105.847L23.2867 93.2229L20.4335 77.9008Z" fill="#FFB762"/>
<path d="M18.8804 54.0744C18.8094 52.786 18.8103 52.2006 19.3674 51.5263C20.8499 49.7319 24.8986 50.5274 26.0544 51.2195C26.8735 51.71 27.182 52.5003 27.3513 53.5045C27.4867 54.3079 27.6034 56.773 27.1746 58.0669C26.8851 58.9403 25.7019 60.7314 23.2847 60.9092C20.8675 61.0869 19.7589 59.3825 19.5068 58.5081C19.181 57.132 18.9574 55.4713 18.8804 54.0744Z" fill="#FBCFB1"/>
<path d="M18.8804 54.0744C18.8094 52.786 18.8103 52.2006 19.3674 51.5263C20.8499 49.7319 24.8986 50.5274 26.0544 51.2195C26.8735 51.71 27.2816 52.5509 27.401 53.8749L18.8804 54.0744Z" fill="#00C65E"/>
<path d="M27.1351 53.0738L29.321 52.4729" stroke="#00C65E" stroke-width="1.63768" stroke-linecap="round"/>
<path d="M29.7934 79.7596L27.1762 71.334L30.6718 70.6982L31.9985 79.405L32.545 80.1705C32.545 80.1705 32.8786 81.1581 32.9847 81.8826C33.0981 82.6568 33.2388 83.8728 33.2388 83.8728L31.9223 84.2251C31.0235 83.009 30.2069 81.9038 29.8742 80.9374C29.8742 80.9374 29.8761 80.0059 29.7934 79.7596Z" fill="#FBCFB1"/>
<path d="M26.3023 67.0965C26.4687 67.0741 26.6217 67.1907 26.6442 67.357L27.1261 70.9257L31.1327 70.6461L26.8605 71.5335C26.7084 71.5335 26.5797 71.4211 26.5593 71.2703L26.0418 67.4384C26.0194 67.272 26.136 67.119 26.3023 67.0965Z" fill="#1E7836"/>
</svg>
