<svg width="204" height="118" viewBox="0 0 204 118" fill="none" xmlns="http://www.w3.org/2000/svg">
<path opacity="0.3" d="M55.0976 89.2161C81.7317 96.5139 108.269 99.4966 129.43 100.568C150.52 101.635 159.823 81.9426 149.121 63.7385C144.347 55.6172 140.129 45.2463 136.822 28.1996C136.497 26.5252 136.371 24.7891 136.219 23.0903C134.928 8.71157 123.68 -1.66614 99.6515 9.50426C79.9053 18.6839 70.1869 20.9555 66.8277 21.5124C65.8919 21.6675 64.9535 21.755 64.0131 21.8797C59.2804 22.5072 43.7428 24.5069 34.9619 24.9107C24.5148 25.3911 -0.5127 21.0715 2.34526 39.3093C6.92555 58.7878 11.5361 77.2802 55.0976 89.2161Z" fill="#FFB762" fill-opacity="0.42"/>
<path d="M71.6467 62.5887C79.4654 57.8393 81.9445 50.7682 82.4721 48.2868C84.4587 47.3311 89.7817 47.0522 86.1128 54.0419C81.5268 62.7791 72.2197 69.8661 64.0568 73.2364C60.2058 74.8264 56.5526 75.849 52.0704 74.6872C47.5882 73.5255 44.8781 69.3402 46.3254 67.0776C48.6618 63.425 54.4296 68.5666 57.6286 67.5293C59.3832 66.9603 56.1088 65.6658 53.8832 62.0408C52.1027 59.1407 56.1741 60.9386 58.1354 62.6764C60.0967 64.4142 61.781 66.5144 62.9774 66.5451C64.5247 66.5849 67.1077 65.346 71.6467 62.5887Z" fill="#F89358"/>
<path d="M175.43 62.5887C167.612 57.8393 165.132 50.7682 164.605 48.2868C162.618 47.3311 157.295 47.0522 160.964 54.0419C165.55 62.7791 174.857 69.8661 183.02 73.2364C186.871 74.8264 190.524 75.849 195.007 74.6872C199.489 73.5255 202.199 69.3402 200.752 67.0776C198.415 63.425 192.647 68.5666 189.448 67.5293C187.694 66.9603 190.968 65.6658 193.194 62.0408C194.974 59.1407 190.903 60.9386 188.942 62.6764C186.98 64.4142 185.296 66.5144 184.1 66.5451C182.552 66.5849 179.969 65.346 175.43 62.5887Z" fill="#F89358"/>
<circle cx="123.882" cy="48.8139" r="43.8152" fill="#CCEFDB"/>
<path d="M144.853 10.3007C148.223 12.1404 151.366 14.4363 154.205 17.1594C153.94 17.8966 153.49 18.7074 152.791 18.7074C152.78 18.7074 152.769 18.7072 152.758 18.7068C152.158 18.6851 151.463 18.4569 150.727 18.2156C149.611 17.8499 148.347 17.4348 146.91 17.5508C145.504 17.6636 144.299 18.2572 143.236 18.7806C142.239 19.2713 141.379 19.6957 140.762 19.5415C140.176 19.3955 139.562 18.6575 138.933 17.8489C138.653 17.4895 138.48 17.2319 138.417 17.0806C138.492 16.9555 138.644 16.7579 138.725 16.6529C139.518 15.6274 140.856 14.3147 142.15 13.0453C143.084 12.1293 144.036 11.1935 144.853 10.3007ZM130.86 5.53834C130.628 7.02008 129.987 8.97318 129.407 9.69086C128.765 10.4838 127.632 10.8499 126.88 10.5074C126.121 10.1616 125.52 9.08102 125.273 7.61679C125.111 6.65696 124.792 5.78964 124.455 4.99854C126.619 5.024 128.759 5.20566 130.86 5.53834ZM92.9695 17.8131C98.1612 12.6213 104.428 8.89518 111.267 6.84061C112.093 9.55616 113.099 12.1002 114.08 14.5044C114.831 16.3454 115.682 18.4318 115.49 20.3201C115.416 21.0431 115.233 21.9678 114.775 22.2672C114.377 22.5279 113.577 22.5945 112.731 22.6652C111.337 22.7815 109.602 22.9264 108.021 24.0363C107.684 24.2732 107.37 24.5184 107.067 24.7549C106.416 25.2637 105.8 25.744 105.227 25.9048C104.66 26.064 103.929 25.9806 103.083 25.8841C102.597 25.8288 102.094 25.7717 101.562 25.7542C99.873 25.6921 96.0233 26.5035 94.3471 28.6926C93.5188 29.7744 93.2803 31.082 93.6754 32.3747C93.9681 33.3328 94.5953 34.0011 95.1705 34.5288C97.8572 36.992 101.545 38.7366 105.287 39.3156C105.822 39.3984 106.34 39.4617 106.841 39.5232C109.585 39.859 110.95 40.1032 111.988 41.9733C112.247 42.4391 112.455 42.9904 112.675 43.5742C112.929 44.2465 113.191 44.9417 113.573 45.6425C114.708 47.7243 116.622 48.9438 118.565 48.8356C120.015 48.752 121.087 47.9949 121.947 47.3869C122.345 47.1063 122.72 46.8413 123.041 46.7076C123.903 46.3475 125.22 46.6672 126.561 47.5614C127.481 48.1748 128.672 49.1896 129.117 50.54C129.452 51.5559 129.22 52.732 128.57 53.2818L122.722 58.2761C120.839 59.8846 118.824 61.8377 118.756 64.6701C118.735 65.5658 118.92 66.426 119.083 67.1851C119.197 67.7161 119.388 68.6051 119.285 68.8373C119.178 68.9326 118.677 69.0556 118.377 69.129C117.85 69.2581 117.252 69.4046 116.644 69.7116C113.698 71.1991 113.423 74.7233 113.241 77.0556C113.108 78.7475 112.481 80.1713 111.841 80.2298C111.321 80.2797 110.586 79.3802 110.331 78.3831C110.172 77.7645 110.098 77.0749 110.019 76.3447C109.906 75.2927 109.777 74.1003 109.355 72.9294C108.81 71.4206 107.863 70.1768 107.027 69.0795C106.205 68.0014 105.43 66.9833 105.179 65.9242C104.991 65.1309 105.067 64.1776 105.147 63.168C105.25 61.8827 105.366 60.4258 104.958 58.9429C104.378 56.835 102.943 55.3288 101.676 53.9995C100.844 53.1268 100.058 52.3024 99.5914 51.4119C99.0287 50.3382 99.0986 49.2128 99.1795 47.9098C99.2561 46.6748 99.3431 45.2748 98.8514 43.8345C98.3604 42.3961 97.1996 41.5652 96.3398 40.9496C93.8193 39.1451 91.4583 37.0901 89.3227 34.8416C88.181 33.6396 87.065 32.3268 86.6326 30.8737C86.5196 30.4939 86.4414 30.2069 86.38 29.9825C86.1068 28.9821 85.9458 28.6247 85.3718 27.9894C87.37 24.2937 89.9155 20.8671 92.9695 17.8131ZM159.476 74.3124C158.341 74.1091 157.336 73.533 156.532 72.6144C154.899 70.7482 155.405 69.0733 156.521 66.03C157.082 64.5004 157.662 62.9181 157.843 61.1594C158.12 58.4701 157.698 56.4003 156.551 54.8312C155.198 52.9791 153.161 52.2272 151.364 51.5639C150.992 51.4268 150.641 51.2971 150.304 51.1614C148.763 50.5396 147.315 49.6713 145.781 48.752C144.88 48.2118 143.948 47.6535 143.435 46.9468C142.804 46.078 143.58 42.8219 145.031 40.2468C146.121 38.3126 148.305 36.236 150.871 36.7453C152.081 36.9857 153.151 37.3824 154.285 37.8025C156.365 38.5733 158.517 39.3721 161.432 39.1463C162.039 39.0997 162.634 39.0922 163.208 39.0848C164.242 39.0719 165.441 39.0562 166.536 38.6994C167.3 41.9607 167.696 45.3325 167.696 48.7657C167.696 58.0638 164.813 66.9176 159.476 74.3124Z" fill="#00C65E"/>
<ellipse cx="114.864" cy="34.0767" rx="3.91452" ry="5.4407" fill="white"/>
<ellipse cx="132.898" cy="34.0774" rx="3.91452" ry="5.4407" fill="white"/>
<ellipse cx="114.864" cy="36.1149" rx="2.44964" ry="3.40469" fill="#363A45"/>
<ellipse cx="132.899" cy="36.1149" rx="2.44964" ry="3.40469" fill="#363A45"/>
<path fill-rule="evenodd" clip-rule="evenodd" d="M135.03 56.7405C134.072 61.7837 129.444 64.6928 123.88 64.6928C118.317 64.6928 113.689 61.7837 112.731 56.7405C112.611 57.4005 112.549 58.0805 112.549 58.775C112.549 65.0335 117.622 70.107 123.88 70.107C130.139 70.107 135.212 65.0335 135.212 58.775C135.212 58.0805 135.15 57.4005 135.03 56.7405Z" fill="white"/>
</svg>
