<svg width="409" height="425" viewBox="0 0 409 425" fill="none" xmlns="http://www.w3.org/2000/svg">
<path d="M96.4776 290.519C96.4776 290.519 81.5449 298.316 75.8773 295.561C74.7391 296.616 73.4629 297.512 72.0836 298.223C67.8705 300.074 64.2557 297.241 63.243 298.478C60.6576 301.721 64.8986 308.19 71.9766 315.826C73.7413 317.702 82.0835 324.216 82.0835 324.216C83.8914 323.112 85.3991 321.58 86.4731 319.755C89.17 315.774 92.6984 308.954 101.362 305.621" fill="white"/>
<path d="M96.4776 290.519C96.4776 290.519 81.5449 298.316 75.8773 295.561C74.7391 296.616 73.4629 297.512 72.0836 298.223C67.8705 300.074 64.2557 297.241 63.243 298.478C60.6576 301.721 64.8986 308.19 71.9766 315.826C73.7413 317.702 82.0835 324.216 82.0835 324.216C83.8914 323.112 85.3991 321.58 86.4731 319.755C89.17 315.774 92.6984 308.954 101.362 305.621" stroke="#010101" stroke-width="0.57"/>
<path d="M326.465 405.57C327.826 408.587 329.408 411.5 331.198 414.284C333.418 407.116 337.52 404.61 350.644 399.978L347.112 391.443C347.112 391.443 328.7 382.139 326.465 405.57Z" fill="white" stroke="#010101" stroke-width="0.57"/>
<path d="M300.728 237.042C302.011 236.856 341.039 376.571 351.687 393.693C351.687 393.693 341.294 392.493 333.042 395.431C327.969 397.256 327.806 403.673 325.441 407.74C323.792 410.336 321.383 412.36 318.542 413.537C318.542 413.537 259.533 286.137 259.073 285.281C258.614 284.424 252.317 271.977 246.284 268.67C240.252 265.363 221.761 271.762 220.807 271.9C219.854 272.037 117.561 305.753 101.868 306.545C98.7511 306.693 93.6448 281.236 93.6448 281.236L213.463 223.993C213.463 223.993 227.231 232.172 249.579 236.896C266.489 240.115 283.719 239.688 300.728 237.042Z" fill="#FFB762"/>
<path d="M325.437 407.746C327.178 412.126 318.539 413.542 318.539 413.542C318.539 413.542 259.529 286.143 259.069 285.286C258.61 284.43 252.313 271.982 246.281 268.675C246.281 268.675 246.033 259.297 247.354 256.136C248.676 252.974 274.185 278.872 325.437 407.746Z" fill="#EDA55F"/>
<path d="M332.651 423.741C332.651 423.741 329.632 417.951 330.368 413.868C331.192 409.235 334.713 400.973 350.641 399.946C366.569 398.919 365.064 399.069 372.031 395.377C378.999 391.685 385.085 389.093 390 389.423C394.914 389.753 395.732 390.071 399.504 392.832C403.276 395.593 396.679 389.196 383.941 395.921C371.203 402.646 373.078 402.039 370.185 405.243C367.292 408.447 362.118 414.565 351.153 414.052C340.188 413.539 332.651 423.741 332.651 423.741Z" fill="#363A45"/>
<path d="M45.3606 260.885C45.3606 260.885 38.2904 260.732 39.3659 269.102C40.5975 276.832 43.0954 284.307 46.7592 291.225C51.279 299.581 55.2882 308.203 58.7646 317.045C61.2545 324.169 64.9407 331.792 69.5797 333.236C70.9464 333.541 72.3595 333.576 73.7397 333.339C76.1738 333.14 78.4635 332.102 80.2191 330.405C81.9747 328.707 83.0876 326.453 83.3686 324.027C83.3686 324.027 71.6782 313.97 69.4328 311.206C61.7055 301.516 66.203 299.775 66.203 299.775C66.203 299.775 71.5706 301.5 74.3233 299.994C75.1103 299.485 75.7727 298.806 76.2613 298.006C76.75 297.206 77.0523 296.307 77.1459 295.374C72.9515 291.391 69.3065 286.867 66.3072 281.922C61.9425 274.481 52.9649 260.088 45.3606 260.885Z" fill="#363A45"/>
<path d="M336.407 431.841L332.168 422.72C332.168 422.72 337.154 413.324 351.047 413.43C361.413 413.509 365.043 409.83 367.973 406.301C371.792 401.885 376.517 398.343 381.828 395.916C387.138 393.489 392.909 392.234 398.747 392.237L402.9 396.353C402.9 396.353 396.483 390.735 384.025 399.282C380.057 401.731 376.489 404.777 373.449 408.312C361.649 422.805 357.573 419.686 351.753 418.312C346.905 417.167 334.765 423.268 336.407 431.841Z" fill="#DADCDC"/>
<path d="M355.358 419.111C355.358 419.111 362.632 421.6 369.67 412.007C376.708 402.415 388.487 393.932 397.998 394.487C407.51 395.042 403.952 405.256 401.781 409.044C399.61 412.832 391.606 420.969 382.044 425.054C372.482 429.138 367.959 426.754 362.63 430.058C362.71 430.03 363.797 421.297 355.358 419.111Z" fill="#EFEFEF"/>
<path d="M351.114 439.194C358.54 438.121 363.881 432.555 363.044 426.763C362.207 420.971 355.508 417.146 348.082 418.219C340.656 419.293 335.314 424.858 336.151 430.65C336.989 436.442 343.687 440.267 351.114 439.194Z" fill="#C6C6C6"/>
<path d="M62.577 336.812C56.5295 330.035 52.2721 321.853 50.192 313.011C48.2245 303.579 46.3335 303.5 42.5997 296.941C38.8659 290.382 32.3693 274.926 33.3203 266.297C34.2714 257.668 43.0543 259.453 43.6296 259.37C45.5968 260.022 47.5163 260.81 49.3741 261.728C49.3741 261.728 36.0011 258.257 40.271 273.633C44.5408 289.008 46.4706 289.82 51.8514 299.531C57.2323 309.241 59.0316 320.644 63.553 327.66C67.1959 333.242 68.9884 333.452 73.6883 333.344L62.577 336.812Z" fill="#DADCDC"/>
<path d="M246.272 268.61C246.586 263.034 247.31 257.489 248.438 252.019C249.645 246.206 98.1441 299.386 98.1441 299.386C99.4169 303.431 100.754 306.527 101.855 306.485C117.549 305.693 219.825 271.98 220.795 271.84C221.765 271.7 240.211 265.224 246.272 268.61Z" fill="#EDA55F"/>
<path d="M244.337 267.516C245.071 262.771 246.073 258.071 247.336 253.439C248.546 248.787 250.025 244.208 251.765 239.726C251.033 244.472 250.032 249.172 248.765 253.803C247.541 258.452 246.063 263.03 244.337 267.516Z" fill="white"/>
<path d="M181.917 145.996C181.917 145.996 179.185 138.822 178.539 137.372C174.647 127.043 174.156 123.187 179.389 121.542C183.098 120.385 182.461 117.02 186.542 116.228C190.623 115.437 189.483 112.313 194.962 111.789C198.969 111.411 204.138 105.613 207.861 103.85C210.066 103.061 212.427 102.801 214.751 103.092C217.075 103.383 219.299 104.216 221.242 105.524C224.652 107.984 222.59 109.272 218.093 108.697C216.127 108.499 214.142 108.75 212.287 109.431C210.432 110.112 208.755 111.205 207.384 112.628C205.787 114.235 202.086 118.932 202.086 118.932C202.086 118.932 205.383 131.293 212.401 133.635C217.938 135.486 228.162 126.574 224.779 131.846C203.744 165.227 181.917 145.996 181.917 145.996Z" fill="white" stroke="#010101" stroke-width="0.57"/>
<path d="M251.78 225.657C266.223 223.569 276.555 212.346 274.855 200.589C273.156 188.833 260.069 180.995 245.626 183.083C231.182 185.171 220.851 196.394 222.55 208.15C224.249 219.907 237.336 227.745 251.78 225.657Z" stroke="#E30613" stroke-width="1.69" stroke-miterlimit="10"/>
<path d="M295.387 91.1649C295.484 91.8389 295.51 92.8254 295.565 93.7906C295.677 95.8386 295.798 98.1873 295.791 99.7657C295.738 100.131 295.592 100.476 295.365 100.767C294.974 101.256 294.533 101.703 294.047 102.099C292.693 103.214 291.215 104.17 289.643 104.95C287.931 105.848 286.138 106.585 284.289 107.151C282.846 107.662 281.315 107.884 279.785 107.802C275.989 107.071 272.541 105.103 269.981 102.204C268.954 101.159 267.998 100.047 267.117 98.8761C266.785 98.4374 266.531 98.0714 266.359 97.811L266.187 97.5505L267.238 89.2597C271.096 92.5632 275.929 94.5126 281 94.81C286.07 95.1074 291.098 93.7365 295.316 90.9067L295.387 91.1649Z" fill="white" stroke="#010101" stroke-width="0.57"/>
<path d="M253.363 51.3103C253.925 51.5954 254.418 51.9994 254.809 52.4941C255.263 53.0454 255.673 53.6314 256.036 54.2466L256.424 54.8449L256.446 54.9929L256.399 55.3687C256.444 55.6811 256.511 56.1413 256.496 56.7309C256.54 57.8489 256.627 59.3802 256.66 60.8857C256.693 62.3913 256.747 63.9273 256.714 65.0901C256.741 65.5585 256.719 66.0285 256.648 66.4924C256.669 66.5843 256.683 66.6778 256.688 66.7719C256.543 66.8095 256.394 66.831 256.245 66.836C256.035 66.8185 255.831 66.7563 255.648 66.6538C255.462 66.5617 255.303 66.4227 255.187 66.2506C255.044 66.0856 254.951 65.8839 254.918 65.6685C254.602 64.8751 254.003 63.7534 253.426 62.6621C253.271 62.3993 253.129 62.1177 252.974 61.8549C252.543 61.0781 252.144 60.2966 251.909 59.8272C251.285 58.5438 251.015 57.1172 251.127 55.6946C251.208 54.2768 251.658 52.9047 252.431 51.7135C252.532 51.5533 252.688 51.4353 252.869 51.3816C253.024 51.3126 253.195 51.2879 253.363 51.3103Z" fill="white" stroke="#010101" stroke-width="0.57"/>
<path d="M312.242 45.0143C312.183 46.466 312.132 48.5542 311.819 51.0327C311.255 57.2284 310.089 63.3544 308.338 69.3242C304.287 82.6301 296.147 95.7383 279.816 95.8335C276.403 95.979 273.014 95.2172 269.992 93.6258C266.97 92.0344 264.424 89.6703 262.614 86.7744C258.945 81.2466 257.101 73.8274 256.304 66.3406C255.65 59.4838 255.607 52.5824 256.176 45.718C256.373 42.9038 256.679 40.6108 256.869 38.9052L257.115 37.007L257.182 36.5441L274.224 25.5726L312.318 42.9895L312.358 43.2689C312.284 43.6825 312.262 44.3402 312.242 45.0143Z" fill="white" stroke="#010101" stroke-width="0.57"/>
<path d="M255.861 56.297C255.861 56.297 248.092 43.9949 253.9 31.1231C256.21 25.9729 255.744 17.1796 264.397 14.2339C269.196 12.6006 273.553 15.3438 277.729 15.2101C281.285 15.082 285.472 10.7344 291.61 11.0555C298.533 11.4644 302.223 17.2576 306.773 20.2918C309.39 22.0279 312.294 22.4976 314.914 25.9953C322.824 36.599 326.909 52.4375 312.541 70.6413C312.171 71.4499 309.03 76.4182 305.301 77.2089C305.402 75.8182 306.593 74.5385 306.957 73.2272C308.38 70.068 312.312 62.5523 313.087 59.6713C313.479 58.205 312.889 59.3475 311.411 60.3835C309.933 61.4194 308.403 62.7983 307.186 62.2695C302.656 60.3064 304.454 50.9174 294.89 49.7659C280.233 48.092 270.03 35.7893 270.03 35.7893C254.774 36.7024 255.861 56.297 255.861 56.297Z" fill="#363A45"/>
<path d="M310.881 59.1396C311.346 58.6274 311.847 58.1483 312.379 57.706C312.837 57.3011 313.375 56.9985 313.959 56.8182C314.108 56.7628 314.272 56.7599 314.422 56.81C314.585 56.8898 314.715 57.025 314.787 57.1913C315.339 58.501 315.535 59.9332 315.356 61.343C315.172 62.7515 314.63 64.0893 313.782 65.2286C313.385 65.7871 312.768 66.5447 312.098 67.4207L311.749 67.7764C311.037 68.614 310.372 69.4898 309.755 70.3997C309.416 70.9064 308.907 71.2745 308.32 71.4368C308.156 71.4819 307.983 71.4823 307.82 71.4379C307.684 70.445 307.724 69.4358 307.939 68.4569C308.146 67.1271 308.43 65.8105 308.79 64.5137C309.119 63.2156 309.474 62.0135 309.761 61.1234L310.092 60.0831C310.158 60.0008 310.196 59.8996 310.201 59.7942L310.303 59.6625L310.881 59.1396Z" fill="white" stroke="#010101" stroke-width="0.57"/>
<path d="M268.209 55.4679C270.946 53.9648 270.745 57.4509 270.424 58.1349C269.2 60.6948 266.738 56.4358 268.209 55.4679Z" fill="#040506"/>
<path d="M293.896 57.9809C291.433 56.0378 291.115 59.524 291.351 60.2283C292.104 62.8883 295.304 59.1366 293.896 57.9809Z" fill="#040506"/>
<path d="M299.494 95.4405L303.815 107.687C303.815 107.687 324.551 123.435 327.673 129.243C335.266 143.114 342.227 186.394 343.053 194.548C344.025 204.292 345.794 215.833 326.851 220.384C311.771 224.024 303.183 225.215 303.183 225.215L304.682 236.745C304.682 236.745 237.782 252.356 209.996 220.225L220.554 188.778C220.554 188.778 183.749 203.613 181.173 168.493L179.104 143.62C179.104 143.62 198.492 158.052 213.971 144.051C218.01 140.413 220.64 136.089 222.973 133.654C229.035 127.29 230.833 125.453 231.846 118.644C233.6 106.744 256.006 105.956 256.006 105.956C256.006 105.956 258.937 101.269 260.064 99.8982C261.192 98.527 265.12 94.821 265.12 94.821C265.12 94.821 270.033 102.921 273.63 103.66C280.583 105.323 288.64 104.058 299.494 95.4405Z" fill="#F89358"/>
<path d="M326.386 128.803C328.657 132.905 310.545 140.317 309.245 159.77C308.64 168.819 316.822 174.102 308.868 196.262C307.946 198.829 284.135 199.301 284.092 201.908C283.348 202.544 286.846 212.628 285.9 216.642C284.661 222.006 279.741 224.168 282.573 226.46C287.192 230.206 302.857 226.197 302.857 226.197" stroke="#DB7D46" stroke-width="2" stroke-linecap="round"/>
<path d="M270.134 180.247C274.832 154.698 257.378 173.264 257.378 173.264L254.744 172.688C244.245 148.933 240.65 173.4 240.65 173.4C226.57 177.231 217.123 189.89 219.071 203.369C221.188 218.015 236.054 227.983 252.246 225.642C268.437 223.302 279.872 209.533 277.755 194.887C277.115 189.989 274.964 185.414 271.6 181.797C271.165 181.222 270.657 180.725 270.134 180.247Z" fill="white" stroke="#1D1D1B" stroke-miterlimit="10"/>
<path d="M251.967 226.628C265.077 224.733 274.188 212.709 272.318 199.773C270.448 186.836 258.305 177.885 245.196 179.78C232.086 181.675 222.975 193.698 224.845 206.635C226.715 219.571 238.858 228.523 251.967 226.628Z" fill="#FFED00"/>
<path d="M255.74 108.876C257.172 112.746 258.54 116.643 259.712 120.568L258.25 120.092C262.609 116.28 266.758 112.235 270.679 107.975C271.059 107.519 271.393 107.027 271.675 106.505L271.914 106.068C271.969 105.954 272.045 105.852 272.139 105.767C272.389 105.469 272.726 105.257 273.102 105.157C273.478 105.058 273.875 105.077 274.24 105.211C274.441 105.287 274.63 105.39 274.804 105.516L275.056 105.748C275.423 106.169 275.719 106.648 275.932 107.165C276.515 108.609 276.993 110.094 277.363 111.607C278.15 114.497 278.688 117.406 279.226 120.315C279.44 121.795 279.747 123.227 279.947 124.725L279.983 124.972C279.99 124.905 279.98 124.837 279.954 124.775C279.873 124.635 279.764 124.514 279.634 124.418C279.57 124.369 279.496 124.334 279.418 124.315C279.551 124.312 279.684 124.293 279.812 124.258C280.434 124.137 281.043 123.959 281.632 123.727C284.275 122.656 286.828 121.378 289.269 119.904C294.341 117.015 299.078 113.573 303.392 109.64C299.822 114.409 295.48 118.548 290.545 121.884C288.092 123.636 285.47 125.139 282.719 126.372C281.953 126.715 281.153 126.977 280.332 127.153C279.749 127.299 279.141 127.306 278.556 127.175C278.303 127.097 278.061 126.985 277.837 126.843C277.561 126.643 277.334 126.383 277.173 126.083C277.105 125.938 277.044 125.79 276.991 125.639L276.908 125.064L276.124 120.797C275.56 117.942 274.928 115.08 274.256 112.291C273.947 110.946 273.543 109.625 273.047 108.337C273.009 108.074 272.764 107.774 272.828 107.865C272.922 107.952 273.035 108.016 273.157 108.053L273.338 108.027C273.455 108.035 273.573 108.018 273.683 107.977C273.881 107.957 274.072 107.895 274.244 107.795C274.352 107.745 274.445 107.668 274.514 107.571C274.514 107.571 274.598 107.458 274.514 107.571C274.497 107.456 274.514 107.571 274.514 107.571C274.087 108.332 273.576 109.042 272.991 109.688C270.965 112 268.77 114.157 266.422 116.142C264.145 118.031 261.82 119.827 259.42 121.567L258.219 122.429L258.024 121.081C257.132 116.998 256.348 112.966 255.74 108.876Z" fill="#DB7D46"/>
<path d="M98.1475 299.385C95.7815 291.839 93.6028 281.179 93.6028 281.179L98.1475 299.385Z" fill="#EDA55F"/>
<path d="M211.232 148.791C212.536 151.208 213.549 153.771 214.249 156.427C214.968 159.067 215.519 161.751 215.897 164.462C216.649 169.892 216.638 175.401 215.863 180.828C215.321 178.121 214.966 175.437 214.697 172.757L213.643 164.771C212.842 159.466 212.099 154.204 211.232 148.791Z" fill="#DB7D46"/>
<path d="M273.632 105.027C273.632 105.027 267.37 145.872 259.756 165.181L273.632 105.027Z" fill="#DB7D46"/>
<path d="M273.632 105.027C273.406 110.195 272.806 115.333 272.068 120.441C271.329 125.548 270.403 130.633 269.335 135.67C268.268 140.708 266.998 145.741 265.431 150.684C263.985 155.679 262.086 160.531 259.756 165.181C261.08 160.173 262.204 155.178 263.344 150.18L266.624 135.139C268.817 125.123 270.971 115.061 273.632 105.027Z" fill="#DB7D46"/>
<path d="M284.515 204.129C284.515 204.129 278.028 205.821 275.655 204.385C273.283 202.949 262.992 192.354 256.636 192.383C250.28 192.413 253.466 197.507 254.389 198.548C255.815 200.171 259.561 201.71 262.277 204.825C263.162 205.838 264.291 208.075 263.584 209.453C262.877 210.83 246.611 214.86 237.158 215.639C224.368 216.665 233.483 220.281 233.483 220.281C233.483 220.281 225.979 220.728 226.244 223.375C226.509 226.022 229.819 226.399 237.764 226.912C237.764 226.912 222.308 233.878 240.589 230.9C251.346 229.161 282.836 222.061 282.836 222.061C285.26 218.836 286.295 216.482 286.492 213.314C286.689 210.147 285.555 207.021 284.515 204.129Z" fill="white" stroke="#010101" stroke-width="0.57"/>
<path d="M233.483 220.281C233.483 220.281 239.737 222.448 257.093 219.453" stroke="#010101" stroke-width="0.57"/>
<path d="M237.764 226.914C237.764 226.914 245.612 225.478 246.795 225.307" stroke="#010101" stroke-width="0.57"/>
<path d="M219.327 135.602C226.726 134.532 231.857 127.667 230.787 120.268C229.718 112.869 222.853 107.738 215.454 108.808C208.055 109.877 202.924 116.742 203.994 124.141C205.063 131.54 211.928 136.671 219.327 135.602Z" fill="#FFED00"/>
<path d="M175.843 128.746C175.843 128.746 183.894 138.003 187.89 138.248C191.886 138.492 192.67 135.208 190.57 132.641C188.471 130.075 182.882 122.408 180.679 120.982" fill="white"/>
<path d="M175.843 128.746C175.843 128.746 183.894 138.003 187.89 138.248C191.886 138.492 192.67 135.208 190.57 132.641C188.471 130.075 182.882 122.408 180.679 120.982" stroke="#010101" stroke-width="0.57"/>
<path d="M185.697 126.437C185.697 126.437 192.456 135.697 196.452 135.942C200.447 136.186 199.312 132.508 198.609 130.78C196.899 126.496 190.656 116.977 188.457 115.466" fill="white"/>
<path d="M185.697 126.437C185.697 126.437 192.456 135.697 196.452 135.942C200.447 136.186 199.312 132.508 198.609 130.78C196.899 126.496 190.656 116.977 188.457 115.466" stroke="#010101" stroke-width="0.57"/>
<path d="M193.945 122.426C193.945 122.426 199.666 131.819 203.727 132.054C207.789 132.289 206.587 128.62 205.868 126.894C204.158 122.611 197.932 113.089 195.745 111.66" fill="white"/>
<path d="M193.945 122.426C193.945 122.426 199.666 131.819 203.727 132.054C207.789 132.289 206.587 128.62 205.868 126.894C204.158 122.611 197.932 113.089 195.745 111.66" stroke="#010101" stroke-width="0.57"/>
<path d="M316.852 194.521C319.763 192.417 323.086 190.953 326.602 190.226C330.124 189.441 333.787 189.552 337.255 190.548C333.789 190.737 330.342 191.174 326.939 191.855C323.578 192.525 320.308 193.585 316.852 194.521Z" fill="#DB7D46"/>
<path d="M293.612 200.194C294.864 202.261 295.834 204.485 296.498 206.808C297.181 209.153 297.533 211.582 297.541 214.024C297.569 216.516 297.068 218.985 296.071 221.268C294.981 223.482 293.273 225.332 291.152 226.594C292.772 224.923 294.038 222.942 294.875 220.77C295.571 218.592 295.911 216.316 295.881 214.029C295.874 211.708 295.64 209.392 295.183 207.116C294.799 204.805 294.281 202.497 293.612 200.194Z" fill="#DB7D46"/>
<path d="M257.43 173.255C257.43 173.255 265.578 175.987 270.187 180.238L257.43 173.255Z" fill="white"/>
<path d="M257.43 173.255C257.43 173.255 265.578 175.987 270.187 180.238" stroke="#1D1D1B" stroke-miterlimit="10"/>
<path d="M256.206 106.88C256.824 108.838 257.41 110.801 257.998 112.78C258.586 114.759 259.186 116.703 259.742 118.687L259.02 118.455C261.246 116.556 263.498 114.603 265.597 112.638C267.757 110.695 269.812 108.639 271.754 106.478C272.188 105.976 272.57 105.432 272.896 104.854L273.083 104.524C273.178 104.338 273.325 104.183 273.505 104.077C273.736 103.951 274.003 103.906 274.262 103.951C274.522 103.996 274.758 104.127 274.933 104.324C275.227 104.677 275.466 105.072 275.64 105.497C276.21 106.899 276.676 108.34 277.035 109.81C277.801 112.669 278.356 115.576 278.875 118.472C279.086 119.935 279.394 121.367 279.608 122.846C279.634 123.027 279.67 123.274 279.651 123.142C279.632 123.011 279.636 123.044 279.651 123.142C279.902 123.15 280.152 123.114 280.39 123.035C281.063 122.902 281.72 122.701 282.351 122.433C285.016 121.302 287.589 119.965 290.046 118.434C295.064 115.423 299.692 111.806 303.827 107.665C300.051 112.213 295.601 116.155 290.632 119.356C288.193 121.062 285.595 122.528 282.874 123.733C282.155 124.039 281.408 124.276 280.644 124.442C280.176 124.547 279.691 124.554 279.221 124.463C279.054 124.404 278.892 124.332 278.736 124.248C278.57 124.118 278.432 123.955 278.332 123.769C278.25 123.52 278.212 123.259 278.22 122.997C278.011 121.55 277.703 120.118 277.428 118.681C276.862 115.809 276.233 112.963 275.554 110.125C275.233 108.737 274.817 107.373 274.309 106.042C274.204 105.791 274.074 105.551 273.92 105.326L274.003 105.314L274.183 105.288C274.282 105.274 274.381 105.26 274.397 105.257C274.414 105.255 274.498 105.142 274.397 105.257L274.318 105.403C273.927 106.085 273.454 106.717 272.911 107.285C268.816 111.557 264.37 115.478 259.62 119.006L259.062 119.439L258.962 118.749C258.472 116.756 258.046 114.736 257.606 112.736C257.166 110.735 256.646 108.881 256.206 106.88Z" fill="white"/>
<g clip-path="url(#clip0_17471_2035)">
<path d="M270.786 48.5106C273.362 49.8382 275.552 51.7986 277.145 54.2048C277.885 55.4813 278.274 56.9281 278.274 58.4012C278.294 59.848 278.08 61.2888 277.641 62.6691C276.826 65.4076 275.584 68.0034 273.96 70.3621C273.548 70.8956 273.221 71.4886 272.991 72.1202C272.995 72.4459 273.068 72.767 273.205 73.0628C273.342 73.3586 273.541 73.6225 273.787 73.8375C274.317 74.2915 274.953 74.6074 275.637 74.7565C276.321 74.9057 277.032 74.8835 277.706 74.6919C277.022 74.9391 276.286 75.0087 275.568 74.8942C274.849 74.7797 274.173 74.4848 273.602 74.0376C273.302 73.8061 273.056 73.5118 272.883 73.1755C272.71 72.8392 272.613 72.4691 272.601 72.0916C272.801 71.3835 273.116 70.7126 273.535 70.1056C275 67.7217 276.146 65.1588 276.942 62.4818C277.407 61.1945 277.608 59.8284 277.533 58.4638C277.458 57.0992 277.109 55.7636 276.506 54.5355C275.05 52.1488 273.101 50.0955 270.786 48.5106V48.5106Z" fill="#040506"/>
<path d="M268.286 77.9451C268.286 77.9451 272.155 92.3857 286.563 80.5442C286.56 80.5136 274.981 86.3336 268.286 77.9451Z" fill="#040506"/>
</g>
<path d="M215.257 127.181L215.119 125.535L213.961 125.633L213.861 124.447L215.019 124.349L214.923 123.205L213.765 123.303L213.64 121.824L214.798 121.727L214.419 117.22L217.39 116.97C218.646 116.865 219.588 117.043 220.217 117.505C220.855 117.957 221.213 118.648 221.291 119.578C221.339 120.155 221.253 120.687 221.032 121.174C220.811 121.661 220.428 122.063 219.883 122.38C219.348 122.697 218.624 122.894 217.713 122.97L216.708 123.055L216.805 124.199L219.009 124.013L219.109 125.199L216.905 125.385L217.043 127.031L215.257 127.181ZM217.393 121.508C218.072 121.451 218.602 121.289 218.982 121.023C219.362 120.757 219.529 120.345 219.482 119.787C219.44 119.285 219.246 118.926 218.9 118.712C218.562 118.487 218.064 118.403 217.403 118.458L216.329 118.549L216.584 121.576L217.393 121.508Z" fill="#363A45"/>
<defs>
<clipPath id="clip0_17471_2035">
<rect width="17.9938" height="37.0461" fill="white" transform="translate(265.843 48.9253) rotate(-4.8119)"/>
</clipPath>
</defs>
</svg>
