<svg width="115" height="115" viewBox="0 0 115 115" fill="none" xmlns="http://www.w3.org/2000/svg">
<g clip-path="url(#clip0_17471_9887)">
<path opacity="0.2" d="M105.163 90.0575C102.77 107.769 83.6326 117.841 67.6783 109.786L15.4563 83.4181C-3.40576 73.8945 -3.6326 47.0418 15.0659 37.2008L75.1209 5.59391C93.8193 -4.24707 115.825 11.1435 112.996 32.0832L105.163 90.0575Z" fill="#00C65E"/>
<rect x="9.80469" y="14.6133" width="55.6529" height="63.338" rx="1" fill="white"/>
<rect x="16.3747" y="26.9976" width="2.5" height="41.1253" rx="1" transform="rotate(-90 16.3747 26.9976)" fill="#FD9558"/>
<rect x="16.3747" y="37.1406" width="2.5" height="23.0779" rx="1" transform="rotate(-90 16.3747 37.1406)" fill="#FD9558"/>
<rect x="16.3747" y="47.2852" width="2.5" height="19.3772" rx="1" transform="rotate(-90 16.3747 47.2852)" fill="#FD9558"/>
<rect x="16.3747" y="57.4282" width="2.5" height="23.0779" rx="1" transform="rotate(-90 16.3747 57.4282)" fill="#FD9558"/>
<rect x="40.2046" y="49.3802" width="13.7986" height="27.4435" transform="rotate(-60 40.2046 49.3802)" fill="#0FC645" stroke="white"/>
<path d="M48.3127 49.8197L46.4763 48.8087L47.1997 47.4948C47.3435 47.2335 47.5534 47.0646 47.8255 46.9857C48.0975 46.9069 48.3652 46.9374 48.6265 47.0812C48.8877 47.2251 49.0566 47.435 49.1355 47.707C49.2122 47.9829 49.1777 48.2485 49.0361 48.5058L48.3127 49.8197ZM49.8353 48.9459C50.1187 48.4312 50.1911 47.9122 50.0486 47.3867C49.9078 46.8671 49.5929 46.4702 49.1094 46.204C48.626 45.9378 48.1222 45.884 47.604 46.0407C47.0876 46.2035 46.6838 46.5401 46.4005 47.0547L45.1919 49.2498L47.8275 50.7009L47.4755 51.3403L48.2747 51.7804L48.6268 51.1409L49.1843 51.4479L48.8323 52.0873L49.6315 52.5274L49.9836 51.888L50.7828 52.328L51.268 51.4469L50.4687 51.0068L51.4562 49.2134L50.6569 48.7733L49.6694 50.5668L49.1119 50.2598L49.8353 48.9459Z" fill="white"/>
<rect x="43.7169" y="37.7465" width="13.7986" height="27.4435" transform="rotate(-30 43.7169 37.7465)" fill="#0FC645" stroke="white"/>
<path d="M50.7597 42.7838L49.687 40.9828L50.9756 40.2153C51.2318 40.0627 51.4983 40.0231 51.7729 40.0927C52.0475 40.1623 52.263 40.324 52.4156 40.5802C52.5682 40.8364 52.6077 41.1029 52.5382 41.3775C52.4648 41.6543 52.3007 41.866 52.0484 42.0163L50.7597 42.7838ZM52.5152 42.8002C53.02 42.4996 53.345 42.0884 53.4879 41.563C53.6292 41.0436 53.5583 40.5419 53.2759 40.0678C52.9935 39.5936 52.5861 39.2923 52.0598 39.1654C51.532 39.0446 51.0135 39.1307 50.5087 39.4314L48.3559 40.7136L49.8955 43.2986L49.2684 43.6721L49.7353 44.456L50.3624 44.0825L50.6881 44.6293L50.061 45.0028L50.5279 45.7867L51.155 45.4132L51.6219 46.197L52.4861 45.6823L52.0192 44.8984L53.7782 43.8508L53.3113 43.0669L51.5523 44.1145L51.2266 43.5677L52.5152 42.8002Z" fill="white"/>
<rect x="51.8188" y="30.9509" width="13.7986" height="27.4435" transform="rotate(-4.13873 51.8188 30.9509)" fill="#0FC645" stroke="white"/>
<path d="M58.7731 39.6073L58.6631 37.5139L60.1609 37.4352C60.4587 37.4195 60.713 37.5087 60.9235 37.6982C61.134 37.8877 61.2493 38.1312 61.265 38.429C61.2806 38.7268 61.1915 38.981 61.002 39.1916C60.8081 39.4023 60.5643 39.5132 60.271 39.5286L58.7731 39.6073ZM60.3188 40.4397C60.9055 40.4089 61.3846 40.1965 61.7559 39.7982C62.123 39.4045 62.294 38.9276 62.265 38.3764C62.2361 37.8253 62.016 37.3689 61.6094 37.0114C61.1987 36.6586 60.6997 36.4932 60.1131 36.524L57.6108 36.6555L57.7686 39.6601L57.0397 39.6984L57.0876 40.6095L57.8165 40.5712L57.8499 41.2068L57.121 41.2451L57.1689 42.1563L57.8978 42.118L57.9457 43.0291L58.9502 42.9763L58.9023 42.0652L60.9468 41.9577L60.8989 41.0466L58.8544 41.154L58.821 40.5184L60.3188 40.4397Z" fill="white"/>
<path d="M82.3602 77.0494V60.201C79.532 59.3635 77.8239 57.5853 77.3306 57.1578C76.8373 56.7303 75.2587 54.0991 73.417 52.2577C71.9437 50.7846 69.054 50.0649 67.7934 49.8892L67.5212 54.6577C67.5212 54.6577 65.6164 54.178 58.7496 54.0991C51.8829 54.0201 53.6741 58.5826 55.4281 60.8738C52.8761 63.3205 54.2551 66.2562 55.2637 67.4182C53.2115 69.8913 55.2635 72.3951 56.5461 73.3378C56.5461 73.3378 53.842 75.9084 56.5461 78.9803C57.5863 80.162 68.7972 79.2211 73.2112 78.5793C76.7425 78.0659 80.4078 77.0494 82.3602 77.0494Z" fill="#FBCFB1"/>
<rect x="81.8903" y="57.7893" width="7.27361" height="21.7574" fill="#00C65E"/>
<path d="M18.0134 63.912C18.2976 62.6067 19.1532 60.4305 20.3012 62.1675C20.965 63.172 21.4878 64.8822 21.6774 66.676M21.6774 66.676C21.8976 68.7594 21.6684 70.9555 20.689 72.2892C18.8662 74.7713 17.9344 69.9053 21.6774 66.676ZM21.6774 66.676C22.938 64.9403 25.4049 62.1127 25.1878 64.6878C24.9163 67.9068 22.1627 71.5135 24.3345 70.3113C26.5064 69.109 29.609 63.7958 29.609 65.8901C29.609 67.9843 31.7032 71.785 36.7837 67.4026" stroke="#0FC645"/>
</g>
<defs>
<clipPath id="clip0_17471_9887">
<rect width="115" height="115" fill="white"/>
</clipPath>
</defs>
</svg>
