<svg width="115" height="115" viewBox="0 0 115 115" fill="none" xmlns="http://www.w3.org/2000/svg">
<g clip-path="url(#clip0_17471_9783)">
<path opacity="0.2" d="M105.685 89.9774C103.292 107.689 84.1551 117.761 68.2007 109.705L15.9788 83.3381C-2.8833 73.8144 -3.11014 46.9617 15.5883 37.1207L75.6433 5.51384C94.3418 -4.32715 116.348 11.0634 113.518 32.0032L105.685 89.9774Z" fill="#00C65E"/>
<path d="M82.0392 24.834H16.6774C13.1692 24.834 10.3252 27.6567 10.3252 31.1386V74.8715C10.3252 78.3535 13.1692 81.1762 16.6774 81.1762H82.0392C85.5474 81.1762 88.3914 78.3535 88.3914 74.8715V31.1386C88.3914 27.6567 85.5474 24.834 82.0392 24.834Z" fill="white"/>
<path d="M82.0485 82.0849H16.6775C14.7517 82.0849 12.9045 81.3262 11.5419 79.9754C10.1792 78.6247 9.41246 76.7923 9.41003 74.8809V31.1389C9.4244 29.2303 10.1947 27.4039 11.5545 26.0542C12.9143 24.7046 14.7545 23.94 16.6775 23.9258H82.0485C83.9715 23.94 85.8117 24.7046 87.1715 26.0542C88.5313 27.4039 89.3016 29.2303 89.316 31.1389V74.8809C89.3136 76.7923 88.5468 78.6247 87.1842 79.9754C85.8215 81.3262 83.9744 82.0849 82.0485 82.0849ZM16.6775 25.7609C15.24 25.7751 13.8654 26.3481 12.8489 27.3571C11.8324 28.366 11.2549 29.7303 11.2406 31.1571V74.8809C11.2573 76.306 11.8358 77.668 12.8521 78.675C13.8683 79.682 15.2416 80.2538 16.6775 80.268H82.0485C83.4845 80.2538 84.8577 79.682 85.874 78.675C86.8903 77.668 87.4687 76.306 87.4854 74.8809V31.1389C87.4711 29.7121 86.8937 28.3478 85.8772 27.3389C84.8606 26.33 83.486 25.7569 82.0485 25.7427L16.6775 25.7609Z" fill="#00C65E"/>
<path d="M4.44962 81.0596H93.3988C93.491 81.0596 93.5795 81.0959 93.6447 81.1607C93.7099 81.2254 93.7466 81.3132 93.7466 81.4048V84.2937C93.7466 84.8141 93.5383 85.3132 93.1675 85.6812C92.7967 86.0492 92.2939 86.2559 91.7695 86.2559H6.07885C5.55451 86.2559 5.05164 86.0492 4.68087 85.6812C4.3101 85.3132 4.1018 84.8141 4.1018 84.2937V81.423C4.09931 81.3761 4.10647 81.3293 4.12283 81.2853C4.1392 81.2413 4.16442 81.201 4.19697 81.167C4.22952 81.133 4.26871 81.1059 4.31215 81.0875C4.35558 81.069 4.40236 81.0595 4.44962 81.0596Z" fill="#1E7836"/>
<rect x="16.5399" y="34.7153" width="32.3842" height="36.5803" rx="1" fill="#FFB762"/>
<rect x="20.7668" y="43.6062" width="2.71195" height="23.9306" rx="1" transform="rotate(-90 20.7668 43.6062)" fill="white"/>
<rect x="20.7668" y="53.4888" width="2.71195" height="19.0015" rx="1" transform="rotate(-90 20.7668 53.4888)" fill="white"/>
<rect x="20.7668" y="63.3713" width="2.71195" height="16.2233" rx="1" transform="rotate(-90 20.7668 63.3713)" fill="white"/>
<path d="M42.5711 64.3838L34.9447 61.5633C34.8903 61.5431 34.8312 61.5388 34.7744 61.5509C34.7176 61.563 34.6655 61.591 34.6243 61.6316C34.5831 61.6722 34.5544 61.7237 34.5418 61.78C34.5292 61.8362 34.5331 61.8949 34.553 61.949L37.4099 69.5305C37.4321 69.5892 37.4722 69.6396 37.5246 69.6746C37.577 69.7096 37.6391 69.7276 37.7022 69.7259C37.7654 69.7243 37.8264 69.7031 37.8769 69.6654C37.9274 69.6276 37.9647 69.5752 37.9837 69.5154L38.8004 66.8788L41.5692 69.5606C41.6261 69.6167 41.7031 69.6482 41.7833 69.6482C41.8635 69.6482 41.9404 69.6167 41.9973 69.5606L42.7108 68.8525C42.7673 68.796 42.7991 68.7196 42.7991 68.64C42.7991 68.5604 42.7673 68.4841 42.7108 68.4276L39.9511 65.7578L42.5711 64.9533C42.6308 64.9328 42.6825 64.8944 42.7191 64.8433C42.7558 64.7923 42.7754 64.7312 42.7754 64.6685C42.7754 64.6059 42.7558 64.5448 42.7191 64.4937C42.6825 64.4427 42.6308 64.4043 42.5711 64.3838Z" fill="#00C65E"/>
<rect width="1.90606" height="5.23798" rx="0.95303" transform="matrix(-0.533982 -0.845496 0.849088 -0.528252 79.8821 44.1931)" fill="#FFB762"/>
<rect width="1.90606" height="5.23798" rx="0.95303" transform="matrix(-0.533982 -0.845496 0.849088 -0.528252 51.4928 61.855)" fill="#FFB762"/>
<rect width="1.91231" height="5.22086" rx="0.956156" transform="matrix(0.849088 -0.528252 0.533982 0.845496 57.0323 36.2053)" fill="#FFB762"/>
<rect width="2.54975" height="10.1532" rx="1" transform="matrix(0.849088 -0.528252 0.533982 0.845496 71.8412 60.248)" fill="#CCEFDB"/>
<path d="M62.5227 43.1064C67.4714 40.0279 73.9923 41.5162 77.09 46.421C80.1875 51.3257 78.6951 57.7995 73.7468 60.8783C68.7981 63.9571 62.2765 62.4691 59.1787 57.5643C56.0809 52.6594 57.574 46.1852 62.5227 43.1064Z" fill="white" stroke="#CCEFDB" stroke-width="2"/>
<rect width="1.90919" height="3.89218" rx="0.954595" transform="matrix(-0.978341 -0.222735 0.224415 -0.971018 71.6534 37.6389)" fill="#FFB762"/>
<rect width="1.90919" height="3.89218" rx="0.954595" transform="matrix(0.224415 -0.971018 -0.978341 -0.222735 53.5814 48.8806)" fill="#FFB762"/>
<rect width="1.90919" height="3.89218" rx="0.954595" transform="matrix(-0.224415 0.971018 0.978341 0.222735 81.4138 53.2612)" fill="#FFB762"/>
<rect width="1.90919" height="3.89218" rx="0.954595" transform="matrix(0.978341 0.222735 -0.224415 0.971018 63.4949 64.4092)" fill="#FFB762"/>
<path d="M67.5393 52.2167L65.9788 49.7458L67.7601 48.6377C68.1142 48.4174 68.4864 48.3539 68.8733 48.442C69.2603 48.5301 69.5674 48.7482 69.7894 49.0997C70.0113 49.4512 70.0753 49.8206 69.9866 50.2046C69.8925 50.5919 69.6694 50.8915 69.3206 51.1085L67.5393 52.2167ZM69.9998 52.184C70.6975 51.7499 71.1397 51.1678 71.3232 50.4326C71.5048 49.7058 71.3894 49.0103 70.9786 48.3598C70.5678 47.7093 69.9873 47.3032 69.2459 47.1433C68.5024 46.992 67.7786 47.1282 67.0809 47.5622L64.1051 49.4136L66.3448 52.9599L65.478 53.4992L66.1572 54.5746L67.024 54.0353L67.4978 54.7855L66.631 55.3248L67.3101 56.4002L68.177 55.8609L68.8562 56.9363L70.0507 56.1932L69.3715 55.1177L71.8029 53.6051L71.1237 52.5297L68.6923 54.0423L68.2185 53.2921L69.9998 52.184Z" fill="#00C65E"/>
</g>
<defs>
<clipPath id="clip0_17471_9783">
<rect width="115" height="115" fill="white"/>
</clipPath>
</defs>
</svg>
