<svg width="115" height="115" viewBox="0 0 115 115" fill="none" xmlns="http://www.w3.org/2000/svg">
<g clip-path="url(#clip0_17471_9850)">
<path opacity="0.2" d="M104.486 90.3407C102.093 108.052 82.9559 118.124 67.0015 110.069L14.7796 83.7013C-4.08252 74.1777 -4.30936 47.325 14.3891 37.484L74.4441 5.87712C93.1426 -3.96386 115.148 11.4267 112.319 32.3664L104.486 90.3407Z" fill="#00C65E"/>
<rect x="71.3477" y="29.1453" width="29.3776" height="28.4943" rx="1" transform="rotate(2.21828 71.3477 29.1453)" fill="white"/>
<path d="M52.4908 40.8103C52.2592 33.3364 53.4034 31.7647 54.7819 31.1166C55.7242 30.6735 58.1326 30.712 60.2427 31.7563C62.8099 33.0269 68.2696 38.7516 71.1991 42.2435L66.3076 48.0289L69.1981 50.8571L68.8669 59.4064L53.7848 59.6916C52.8879 53.2755 52.672 46.6613 52.4908 40.8103Z" fill="#00C65E"/>
<path d="M53.7849 59.6918L68.867 59.4066L68.7711 61.8816L82.7022 70.1254C84.0577 71.1398 84.7013 72.1335 84.9794 74.8629C85.2574 77.5922 87.0329 90.654 87.8859 96.8438C88.7234 96.8762 90.8465 96.7674 91.4375 97.9187C91.9843 98.9839 92.1591 101.206 92.2473 102.233L80.7189 103.965L76.0766 76.5867C72.5694 75.2949 64.4153 72.132 64.4153 72.132C64.4153 72.132 56.1408 69.5633 53.9715 60.8153L53.7849 59.6918Z" fill="#FFB762"/>
<path d="M50.0797 79.1611L54.5252 62.5785C55.7196 64.896 59.0906 69.9332 63.0186 71.5419L57.1843 84.1652L39.626 96.5857C40.0623 97.2984 40.8945 98.8438 40.8495 100.005C40.768 102.107 37.9208 102.93 36.4848 103.717L30.0093 93.0836L50.0797 79.1611Z" fill="#F1A74F"/>
<path d="M50.1236 17.5377C49.9857 15.036 49.9875 13.8992 51.0693 12.5898C53.9481 9.10532 61.81 10.6501 64.0543 11.9941C65.6449 12.9466 66.244 14.4811 66.5727 16.4311C66.8357 17.9912 67.0623 22.7781 66.2295 25.2906C65.6675 26.9866 63.3698 30.4647 58.676 30.8099C53.9822 31.155 51.8295 27.8454 51.3399 26.1474C50.7073 23.4753 50.2731 20.2504 50.1236 17.5377Z" fill="#FBCFB1"/>
<path d="M50.1236 17.5377C49.9857 15.036 49.9875 13.8992 51.0693 12.5898C53.9481 9.10532 61.81 10.6501 64.0543 11.9941C65.6449 12.9466 66.4374 14.5795 66.6693 17.1505L50.1236 17.5377Z" fill="#00C65E"/>
<path d="M66.0954 16.1609L71.7867 15.9973" stroke="#00C65E" stroke-width="2" stroke-linecap="round"/>
<path d="M28.1423 44.4087L44.0961 44.4087" stroke="#00C65E" stroke-width="3" stroke-linecap="round"/>
<path d="M43.2531 51.1321L54.0611 51.1321" stroke="white" stroke-width="2" stroke-linecap="round"/>
<path d="M15.2759 59.2822L41.0349 59.282" stroke="#00C65E" stroke-width="3" stroke-linecap="round"/>
<path d="M32.686 69.0779L46.4913 69.0779" stroke="white" stroke-width="2" stroke-linecap="round"/>
<path d="M72.4579 53.9076L66.2895 48.0208L71.2099 42.2649L75.1315 46.8145L92.5229 48.0878L94.9125 47.0312L100.052 47.2302L99.7776 54.3158C97.9601 54.362 94.1283 54.3768 93.3407 54.0665C92.5532 53.7561 91.3825 53.874 90.8957 53.9718L72.4579 53.9076Z" fill="#FBCFB1"/>
<path d="M61.7682 43.3869C61.9504 43.1794 62.2663 43.1588 62.4738 43.341L66.9458 47.2627L66.2888 48.0211L61.814 44.0925C61.6065 43.9103 61.586 43.5944 61.7682 43.3869Z" fill="#1E7836"/>
<path d="M82.8123 29.5081L89.9608 29.785L89.6655 37.4086C89.6441 37.9605 89.1794 38.3905 88.6275 38.3692L83.4776 38.1697C82.9257 38.1483 82.4956 37.6836 82.517 37.1317L82.8123 29.5081Z" fill="#FD9558"/>
</g>
<defs>
<clipPath id="clip0_17471_9850">
<rect width="115" height="115" fill="white"/>
</clipPath>
</defs>
</svg>
