<svg width="100" height="100" viewBox="0 0 100 100" fill="none" xmlns="http://www.w3.org/2000/svg">
<circle cx="50" cy="50" r="50" fill="#00C65E"/>
<path d="M49.7759 22.8884C49.9245 22.867 50.0755 22.867 50.2241 22.8884L67.521 25.3884C68.2954 25.5005 68.8646 26.1596 68.8647 26.9353V48.948C68.8647 65.9921 55.0079 74.426 50.395 76.7498C50.1455 76.8754 49.8704 76.8754 49.6206 76.7498C45.0042 74.4263 31.1363 65.9922 31.1362 48.948V26.9353C31.1364 26.1597 31.7046 25.5006 32.479 25.3884L49.7759 22.8884Z" stroke="white" stroke-width="4.58694"/>
<path d="M42.4478 41.9852H46.877V52.0913H48.781C53.0532 52.0913 55.1885 50.0156 55.1868 45.8641C55.1868 41.7974 53.2044 39.7648 49.2394 39.7663H48.4396V36.4763L49.0115 36.4763C52.4219 36.4763 55.0716 37.2947 56.9605 38.9315C58.8495 40.5683 59.7931 42.8472 59.7915 45.7681C59.7915 48.878 58.8136 51.2588 56.8578 52.9104C54.9021 54.5621 52.0712 55.3932 48.3651 55.4036H42.4478V41.9852Z" fill="white"/>
<path d="M46.8795 36.4763H42.4478V40.4247H46.8795V36.4763Z" fill="white"/>
</svg>
