<svg width="100" height="100" viewBox="0 0 100 100" fill="none" xmlns="http://www.w3.org/2000/svg">
<circle cx="50" cy="50" r="50" fill="#00C65E"/>
<rect x="11.7779" y="47.3081" width="24.1229" height="49.1312" rx="1.5" transform="rotate(-51.887 11.7779 47.3081)" fill="#00C65E" stroke="white" stroke-width="3"/>
<path d="M27.394 46.7288L24.3391 44.3987L26.0063 42.2129C26.3377 41.7784 26.7639 41.5289 27.2784 41.4597C27.7929 41.3904 28.2699 41.5183 28.7045 41.8498C29.139 42.1812 29.3885 42.6074 29.4577 43.1219C29.522 43.6429 29.3877 44.1149 29.0612 44.543L27.394 46.7288ZM30.3908 45.5572C31.0438 44.701 31.3156 43.7798 31.1996 42.7885C31.0852 41.8087 30.6218 41.0039 29.8176 40.3904C29.0133 39.777 28.1146 39.5429 27.1329 39.6867C26.1527 39.8419 25.3297 40.3426 24.6766 41.1988L21.8914 44.8504L26.2759 48.1946L25.4646 49.2583L26.7942 50.2725L27.6055 49.2088L28.533 49.9162L27.7217 50.9799L29.0513 51.9941L29.8627 50.9304L31.1923 51.9445L32.3103 50.4787L30.9807 49.4645L33.2564 46.481L31.9268 45.4668L29.6511 48.4504L28.7236 47.7429L30.3908 45.5572Z" fill="white"/>
<rect x="39.1219" y="24.5853" width="24.1229" height="49.1312" rx="1.5" transform="rotate(-0.181352 39.1219 24.5853)" fill="#00C65E" stroke="white" stroke-width="3"/>
<path d="M48.7147 37.3199L48.6503 33.4783L51.399 33.4323C51.9454 33.4231 52.4053 33.6031 52.7785 33.9639C53.1517 34.3248 53.3469 34.7784 53.3561 35.3249C53.3652 35.8713 53.1853 36.3312 52.8244 36.7044C52.4554 37.0777 52.0016 37.2648 51.4633 37.2738L48.7147 37.3199ZM51.4914 38.9458C52.568 38.9278 53.4594 38.5702 54.1655 37.8649C54.8636 37.1679 55.2082 36.3055 55.1912 35.2941C55.1743 34.2828 54.801 33.4324 54.0798 32.751C53.3506 32.0779 52.4476 31.7422 51.3709 31.7603L46.779 31.8372L46.8714 37.3508L45.5338 37.3732L45.5618 39.0452L46.8994 39.0228L46.919 40.1891L45.5814 40.2115L45.6094 41.8836L46.947 41.8611L46.975 43.5332L48.8183 43.5023L48.7903 41.8303L52.5421 41.7674L52.5141 40.0954L48.7623 40.1582L48.7427 38.9919L51.4914 38.9458Z" fill="white"/>
<rect x="74.9833" y="30.9213" width="24.1229" height="49.1312" rx="1.5" transform="rotate(54.1804 74.9833 30.9213)" fill="#00C65E" stroke="white" stroke-width="3"/>
<path d="M68.305 49.286L71.4641 47.0993L73.0287 49.3597C73.3397 49.8091 73.4454 50.2915 73.3525 50.8022C73.2596 51.313 72.9908 51.7272 72.5414 52.0383C72.092 52.3493 71.6096 52.455 71.0988 52.3621C70.5835 52.2625 70.1759 51.989 69.8695 51.5463L68.305 49.286ZM68.4945 52.4981C69.1073 53.3834 69.8997 53.9263 70.8784 54.1219C71.8457 54.3155 72.7542 54.1231 73.5859 53.5474C74.4177 52.9718 74.9177 52.1892 75.0839 51.211C75.2388 50.2308 75.0165 49.2934 74.4037 48.408L71.7899 44.6317L67.2558 47.7701L66.4944 46.6701L65.1194 47.6218L65.8808 48.7218L64.9216 49.3857L64.1602 48.2857L62.7852 49.2374L63.5466 50.3374L62.1716 51.2891L63.2208 52.805L64.5958 51.8533L66.7314 54.9387L68.1064 53.9869L65.9708 50.9016L66.93 50.2377L68.4945 52.4981Z" fill="white"/>
</svg>
