<svg width="100" height="100" viewBox="0 0 100 100" fill="none" xmlns="http://www.w3.org/2000/svg">
<circle cx="50" cy="50" r="50" fill="#00C65E"/>
<path fill-rule="evenodd" clip-rule="evenodd" d="M50.0024 82.4999C67.9483 82.4999 82.4964 67.9519 82.4964 50.0059C82.4964 32.06 67.9483 17.512 50.0024 17.512C32.0565 17.512 17.5084 32.06 17.5084 50.0059C17.5084 67.9519 32.0565 82.4999 50.0024 82.4999ZM34.4777 73.2383C39.0724 76.3095 44.4745 77.9493 50.0011 77.9504C57.4106 77.9431 64.5146 74.9968 69.7545 69.758C74.9943 64.5192 77.9419 57.4158 77.9507 50.0063C77.9507 44.4797 76.3119 39.0773 73.2417 34.482C70.1714 29.8868 65.8074 26.3051 60.7016 24.1899C55.5958 22.0747 49.9775 21.521 44.557 22.5988C39.1366 23.6766 34.1574 26.3374 30.2491 30.2449C26.3409 34.1524 23.679 39.1311 22.6002 44.5513C21.5213 49.9716 22.0739 55.59 24.1881 60.6962C26.3023 65.8024 29.8831 70.1671 34.4777 73.2383Z" fill="white"/>
<path d="M50.1964 24.2656H49.8043C49.3178 24.2656 48.9235 24.66 48.9235 25.1464V28.3148C48.9235 28.8013 49.3178 29.1956 49.8043 29.1956H50.1964C50.6829 29.1956 51.0772 28.8013 51.0772 28.3148V25.1464C51.0772 24.66 50.6829 24.2656 50.1964 24.2656Z" fill="white"/>
<path d="M50.1786 70.8005H49.7864C49.3 70.8005 48.9056 71.1949 48.9056 71.6813V74.8497C48.9056 75.3362 49.3 75.7305 49.7864 75.7305H50.1786C50.6651 75.7305 51.0594 75.3362 51.0594 74.8497V71.6813C51.0594 71.1949 50.6651 70.8005 50.1786 70.8005Z" fill="white"/>
<path d="M24.2477 49.8054V50.1976C24.2477 50.684 24.642 51.0784 25.1285 51.0784H28.2969C28.7833 51.0784 29.1777 50.684 29.1777 50.1976V49.8054C29.1777 49.3189 28.7833 48.9246 28.2969 48.9246H25.1285C24.642 48.9246 24.2477 49.3189 24.2477 49.8054Z" fill="white"/>
<path d="M70.7866 49.8093V50.2015C70.7866 50.6879 71.181 51.0823 71.6674 51.0823H74.8358C75.3223 51.0823 75.7166 50.6879 75.7166 50.2015V49.8093C75.7166 49.3228 75.3223 48.9285 74.8358 48.9285H71.6674C71.181 48.9285 70.7866 49.3228 70.7866 49.8093Z" fill="white"/>
<path d="M36.9612 28.279L39.0131 31.8329C39.1271 32.0305 39.3798 32.0982 39.5774 31.9842C39.775 31.8701 39.8427 31.6174 39.7286 31.4198L37.6767 27.8659C37.5627 27.6683 37.31 27.6006 37.1124 27.7146C36.9148 27.8287 36.8471 28.0814 36.9612 28.279Z" fill="white"/>
<path d="M27.8447 37.6996L31.3986 39.7514C31.5962 39.8655 31.8489 39.7978 31.963 39.6002C32.0771 39.4026 32.0094 39.1499 31.8118 39.0359L28.2578 36.984C28.0602 36.8699 27.8076 36.9376 27.6935 37.1352C27.5794 37.3328 27.6471 37.5855 27.8447 37.6996Z" fill="white"/>
<path d="M28.251 63.0289L31.805 60.9771C32.0026 60.863 32.0703 60.6103 31.9562 60.4127C31.8421 60.2151 31.5894 60.1474 31.3919 60.2615L27.8379 62.3134C27.6403 62.4275 27.5726 62.6801 27.6867 62.8777C27.8008 63.0753 28.0534 63.143 28.251 63.0289Z" fill="white"/>
<path d="M38.0343 72.4915L40.0861 68.9212C40.2002 68.7227 40.1318 68.4693 39.9333 68.3552C39.7348 68.2412 39.4814 68.3096 39.3673 68.5081L37.3154 72.0784C37.2013 72.2769 37.2698 72.5303 37.4683 72.6444C37.6668 72.7584 37.9202 72.69 38.0343 72.4915Z" fill="white"/>
<path d="M63.0042 71.7376L60.9523 68.1837C60.8382 67.9861 60.5855 67.9184 60.3879 68.0324C60.1903 68.1465 60.1226 68.3992 60.2367 68.5968L62.2886 72.1508C62.4027 72.3483 62.6553 72.416 62.8529 72.302C63.0505 72.1879 63.1182 71.9352 63.0042 71.7376Z" fill="white"/>
<path d="M72.1217 62.3166L68.5678 60.2647C68.3702 60.1506 68.1175 60.2183 68.0034 60.4159C67.8894 60.6135 67.9571 60.8662 68.1547 60.9802L71.7086 63.0321C71.9062 63.1462 72.1589 63.0785 72.273 62.8809C72.387 62.6833 72.3193 62.4306 72.1217 62.3166Z" fill="white"/>
<path d="M71.7161 36.9862L68.1622 39.0381C67.9646 39.1522 67.8969 39.4048 68.011 39.6024C68.125 39.8 68.3777 39.8677 68.5753 39.7536L72.1293 37.7018C72.3269 37.5877 72.3946 37.335 72.2805 37.1374C72.1664 36.9398 71.9137 36.8721 71.7161 36.9862Z" fill="white"/>
<path d="M62.293 27.8675L60.2411 31.4215C60.127 31.6191 60.1947 31.8717 60.3923 31.9858C60.5899 32.0999 60.8426 32.0322 60.9567 31.8346L63.0086 28.2806C63.1226 28.0831 63.0549 27.8304 62.8573 27.7163C62.6598 27.6022 62.4071 27.6699 62.293 27.8675Z" fill="white"/>
<path d="M50.7712 46.596C49.4693 46.596 48.4522 46.8266 47.7199 47.2877L47.9911 43.6804H56.0464V40.0596H44.2482L43.5566 51.1797L46.4723 51.4509L46.7706 51.0577C46.974 50.8136 47.3402 50.5559 47.8691 50.2982C48.3844 50.0541 48.9811 49.9185 49.6591 49.9185C50.622 49.9185 51.4221 50.2304 52.0459 50.8407C52.6697 51.4645 52.9816 52.2239 52.9816 53.119C52.9816 54.0276 52.6968 54.7599 52.1001 55.3294C51.5035 55.899 50.6898 56.1702 49.6456 56.1702C48.8319 56.1702 48.0454 55.9939 47.2588 55.6278C46.4858 55.2752 45.9841 54.9904 45.74 54.7734C45.5094 54.5565 45.3331 54.3802 45.2111 54.231L42.7158 56.8618L42.9735 57.1738C43.1498 57.4043 43.4346 57.662 43.8278 57.9603C44.2347 58.2586 44.6957 58.5434 45.2246 58.8418C45.7535 59.1401 46.4451 59.3978 47.2859 59.6148C48.1267 59.8317 49.0082 59.9267 49.9304 59.9267C52.1273 59.9267 53.9038 59.2893 55.2599 58.001C56.616 56.7127 57.2805 55.0853 57.2805 53.119C57.2805 51.2475 56.6703 49.7016 55.4226 48.4539C54.1886 47.2199 52.6426 46.596 50.7712 46.596Z" fill="white"/>
</svg>
