<svg width="100" height="100" viewBox="0 0 100 100" fill="none" xmlns="http://www.w3.org/2000/svg">
<circle cx="50" cy="50" r="50" fill="#00C65E"/>
<path d="M48.896 52.1471V49.588H50.8338C51.212 49.588 51.5226 49.7163 51.7724 49.9594C52.0155 50.2092 52.1438 50.5198 52.1438 50.8979C52.1438 51.249 52.0155 51.5461 51.7724 51.7892C51.5226 52.0323 51.212 52.1471 50.8338 52.1471H48.896ZM50.8338 53.8013C51.8467 53.8013 52.6637 53.5178 53.2849 52.9506C53.9061 52.3834 54.2167 51.6812 54.2167 50.8304C54.2167 49.9864 53.8993 49.2706 53.2646 48.6764C52.6299 48.0823 51.8264 47.7852 50.8608 47.7852H46.823V52.1471H45.7832V53.8013H46.823V54.5643H45.7832V56.2254H46.823V57.4678H48.896V56.2254H51.7994V54.5643H48.896V53.8013H50.8338Z" fill="white"/>
<path d="M45.8701 34.1016C47.1701 30.1008 52.8298 30.1009 54.1299 34.1016L56.8184 42.373C56.9346 42.7307 57.2675 42.9735 57.6436 42.9736H66.3408C70.5476 42.9736 72.2969 48.3564 68.8936 50.8291L61.8574 55.9414C61.5531 56.1626 61.4257 56.5543 61.542 56.9121L64.2295 65.1836C65.5294 69.1844 60.9502 72.5115 57.5469 70.0391L50.5107 64.9268C50.2063 64.7056 49.7937 64.7056 49.4893 64.9268L42.4541 70.0391C39.0507 72.5118 34.4715 69.1845 35.7715 65.1836L38.459 56.9121C38.5752 56.5543 38.4469 56.1625 38.1426 55.9414L31.1074 50.8291C27.7041 48.3565 29.4526 42.9739 33.6592 42.9736H42.3564C42.7327 42.9736 43.0663 42.7309 43.1826 42.373L45.8701 34.1016Z" stroke="white" stroke-width="3.47413"/>
<rect width="3.47714" height="9.55543" rx="1.73857" transform="matrix(-0.01359 -0.999908 0.999977 -0.006828 76.1084 50.4497)" fill="white"/>
<rect width="3.47714" height="9.55543" rx="1.73857" transform="matrix(-0.01359 -0.999908 0.999977 -0.006828 14.3848 52.1484)" fill="white"/>
<rect width="3.48855" height="9.52419" rx="1.74427" transform="matrix(0.999977 -0.00682791 0.0135899 0.999908 47.4495 17.5239)" fill="white"/>
<rect width="3.48855" height="9.52419" rx="1.74427" transform="matrix(0.999977 -0.00682791 0.0135899 0.999908 47.4495 72.9773)" fill="white"/>
<rect width="3.48285" height="7.10033" rx="1.74143" transform="matrix(-0.717841 -0.701047 0.698653 -0.710719 68.8264 33.6865)" fill="white"/>
<rect width="3.48285" height="7.10033" rx="1.74143" transform="matrix(0.698653 -0.710719 -0.717841 -0.701047 30 33.9531)" fill="white"/>
<rect width="3.48285" height="7.10033" rx="1.74143" transform="matrix(-0.698653 0.710719 0.717841 0.701047 69.9521 66.5776)" fill="white"/>
<rect width="3.48285" height="7.10033" rx="1.74143" transform="matrix(0.717841 0.701047 -0.698653 0.710719 30.6187 67.5547)" fill="white"/>
</svg>
