<svg width="453" height="400" viewBox="0 0 453 400" fill="none" xmlns="http://www.w3.org/2000/svg">
<path opacity="0.2" d="M278.197 95.2131C320.337 102.388 342.841 148.959 322.276 186.433L254.961 309.096C230.647 353.401 166.442 351.738 144.454 306.234L73.8345 160.088C51.8466 114.584 90.442 63.2469 140.263 71.7291L278.197 95.2131Z" fill="#FFB762"/>
<rect width="12.0856" height="33.2122" rx="6.04282" transform="matrix(-0.621418 -0.78348 0.787664 -0.616105 339.573 183.188)" fill="#FFB762"/>
<rect width="12.0856" height="33.2122" rx="6.04282" transform="matrix(-0.621418 -0.78348 0.787664 -0.616105 173.301 318.889)" fill="#FFB762"/>
<rect width="12.1253" height="33.1036" rx="6.06264" transform="matrix(0.787664 -0.616105 0.621418 0.78348 190.809 153.41)" fill="#FFB762"/>
<rect width="22.1758" height="116.919" rx="6.4409" transform="matrix(0.787664 -0.616105 0.621418 0.78348 294.374 301.014)" fill="#00C65E"/>
<rect width="16.1671" height="116.919" rx="6.4409" transform="matrix(0.787664 -0.616105 0.621418 0.78348 300.485 294.931)" fill="#CCEFDB"/>
<path d="M223.6 195.413C254.201 171.478 298.484 176.686 322.515 206.985C346.546 237.283 341.271 281.255 310.671 305.191C280.07 329.126 235.787 323.918 211.756 293.62C187.725 263.321 193 219.349 223.6 195.413Z" fill="white" stroke="#00C65E" stroke-width="12.8818"/>
<path d="M230.166 193.273C259.231 170.538 301.289 175.487 324.112 204.262C346.935 233.038 341.927 274.801 312.862 297.535C283.797 320.269 241.739 315.321 218.916 286.546C196.093 257.77 201.101 216.007 230.166 193.273Z" fill="white" stroke="#CCEFDB" stroke-width="12.8818"/>
<rect width="12.1055" height="24.6789" rx="6.05274" transform="matrix(-0.996562 -0.116731 0.119185 -0.989461 283.957 152.522)" fill="#FFB762"/>
<rect width="12.1055" height="24.6789" rx="6.05274" transform="matrix(0.119185 -0.989461 -0.996562 -0.116731 177.662 235.664)" fill="#FFB762"/>
<rect width="12.1055" height="24.6789" rx="6.05274" transform="matrix(-0.119185 0.989461 0.996562 0.116731 356.856 240.645)" fill="#FFB762"/>
<rect width="12.1055" height="24.6789" rx="6.05274" transform="matrix(0.996562 0.116731 -0.119185 0.989461 250.698 326.845)" fill="#FFB762"/>
<path d="M251.805 252.462L241.14 237.925L250.844 229.719C252.773 228.088 254.907 227.434 257.221 227.727C259.536 228.02 261.466 229.188 262.983 231.256C264.5 233.324 265.106 235.613 264.829 238.097C264.524 240.606 263.409 242.649 261.509 244.256L251.805 252.462ZM266.151 250.583C269.952 247.369 272.168 243.394 272.777 238.628C273.38 233.917 272.27 229.605 269.462 225.777C266.654 221.95 263.01 219.781 258.58 219.276C254.144 218.826 250.003 220.178 246.202 223.392L229.991 237.101L245.298 257.965L240.575 261.959L245.217 268.286L249.939 264.293L253.177 268.706L248.455 272.7L253.097 279.027L257.819 275.033L262.461 281.361L268.968 275.857L264.327 269.53L277.572 258.329L272.93 252.002L259.685 263.203L256.447 258.789L266.151 250.583Z" fill="#00C65E"/>
<path d="M400.76 202.699C402.277 201.516 406.269 192.179 414.666 194.211C423.064 196.243 426.395 209.039 435.958 207.387C443.608 206.065 448.838 200.064 450.496 197.229" stroke="#00C65E" stroke-width="1.48023"/>
<path d="M3.35156 291.19C3.58465 287.58 -4.5483 270.301 8.80242 261.039C22.1531 251.777 44.2985 263.086 53.9276 247.582C61.6308 235.179 59.7329 220.33 57.8211 214.455" stroke="#FD9558" stroke-width="2.22035"/>
<path d="M213.464 45.1688C211.282 44.7294 200.078 48.2644 195.531 39.3623C190.984 30.4601 199.703 17.8907 191.044 10.7433C184.117 5.02542 174.908 4.95936 171.169 5.64107" stroke="#FD9558" stroke-width="2.22035"/>
</svg>
