<svg width="33" height="33" viewBox="0 0 33 33" fill="none" xmlns="http://www.w3.org/2000/svg">
<circle cx="16.5" cy="16.5" r="16.5" fill="white"/>
<path fill-rule="evenodd" clip-rule="evenodd" d="M11.8464 7.19104C9.27588 7.19104 7.19208 9.27484 7.19208 11.8453V21.1539C7.19208 23.7244 9.27588 25.8082 11.8464 25.8082H21.155C23.7255 25.8082 25.8093 23.7244 25.8093 21.1539V11.8453C25.8093 9.27484 23.7255 7.19104 21.155 7.19104H11.8464ZM22.0097 12.815C22.4202 12.815 22.5065 13.0264 22.4202 13.314V13.3141C22.2476 14.1051 20.5938 16.435 20.5938 16.435C20.4499 16.665 20.3924 16.78 20.5938 17.0388C20.6646 17.1381 20.8159 17.2862 20.989 17.4558C21.167 17.6302 21.3681 17.8272 21.5286 18.0168C22.1117 18.6729 22.5511 19.2262 22.6735 19.6076C22.7854 19.9903 22.5915 20.1843 22.2036 20.1843H20.8461C20.4825 20.1843 20.2995 19.9806 19.9041 19.5407C19.7364 19.3541 19.5304 19.125 19.2563 18.8509C18.4508 18.0743 18.1057 17.9737 17.9042 17.9737C17.6311 17.9737 17.5493 18.0511 17.5493 18.4389V19.6563C17.5493 19.9903 17.4427 20.1843 16.5797 20.1843C15.1415 20.1843 13.5612 19.311 12.4393 17.7004C10.7567 15.3419 10.2964 13.5585 10.2964 13.199C10.2964 12.9976 10.374 12.815 10.7618 12.815H12.1193C12.4663 12.815 12.5968 12.9668 12.7269 13.3428C13.3909 15.2767 14.5103 16.967 14.9705 16.967C15.1431 16.967 15.2222 16.8875 15.2222 16.4492V14.4501C15.191 13.8811 14.9923 13.635 14.8451 13.4528C14.7541 13.3402 14.6829 13.252 14.6829 13.127C14.6829 12.9752 14.8126 12.815 15.0282 12.815H17.1615C17.4492 12.815 17.5493 12.9688 17.5493 13.314V16.0034C17.5493 16.291 17.6742 16.3915 17.7605 16.3915C17.9331 16.3915 18.0769 16.291 18.3933 15.9746C19.3713 14.8816 20.0617 13.199 20.0617 13.199C20.148 12.9976 20.307 12.815 20.6522 12.815H22.0097Z" fill="#00C65E"/>
</svg>
