<svg width="33" height="33" viewBox="0 0 33 33" fill="none" xmlns="http://www.w3.org/2000/svg">
<circle cx="16.5" cy="16.5" r="16.5" fill="white"/>
<path d="M18.1476 15.3035C17.7782 14.7864 17.1724 14.4465 16.4928 14.4465C15.8131 14.4465 15.2073 14.7864 14.8379 15.3035C14.6015 15.6434 14.4537 16.0571 14.4537 16.5003C14.4537 17.6233 15.3698 18.5394 16.4928 18.5394C17.6157 18.5394 18.5318 17.6233 18.5318 16.5003C18.5318 16.0571 18.384 15.6434 18.1476 15.3035Z" fill="#00C65E"/>
<path d="M19.4337 15.3181C19.5815 15.6136 19.6701 16.0864 19.6701 16.5002C19.6701 18.2437 18.2517 19.6769 16.4934 19.6769C14.7351 19.6769 13.3166 18.2584 13.3166 16.5002C13.3166 16.0717 13.4053 15.6136 13.553 15.3181H11.7652V20.0611C11.7652 20.6816 12.3119 21.2283 12.9325 21.2283H20.0543C20.6748 21.2283 21.2215 20.6816 21.2215 20.0611V15.3181H19.4337Z" fill="#00C65E"/>
<path d="M20.6887 12.0377H18.9747V14.0029H20.9251V12.2889V12.0229L20.6887 12.0377Z" fill="#00C65E"/>
<path d="M21.1321 7.19141H11.8531C9.28215 7.19141 7.18402 9.28953 7.18402 11.8605V21.1543C7.18402 23.7105 9.28215 25.8086 11.8531 25.8086H21.1469C23.7178 25.8086 25.816 23.7105 25.816 21.1395V11.8605C25.8012 9.28953 23.7031 7.19141 21.1321 7.19141ZM22.2551 15.3032V20.0609C22.2551 21.302 21.2947 22.2625 20.0535 22.2625H12.9317C11.6906 22.2625 10.7302 21.302 10.7302 20.0609V15.3032V12.9391C10.7302 11.6979 11.6906 10.7375 12.9317 10.7375H20.0535C21.2947 10.7375 22.2551 11.6979 22.2551 12.9391V15.3032Z" fill="#00C65E"/>
</svg>
