<svg width="33" height="33" viewBox="0 0 33 33" fill="none" xmlns="http://www.w3.org/2000/svg">
<circle cx="16.5" cy="16.5" r="16.5" fill="white"/>
<path d="M21.1395 7.19141H11.8457C9.28953 7.19141 7.19141 9.28953 7.19141 11.8605V21.1543C7.19141 23.7105 9.28953 25.8086 11.8457 25.8086H21.1395C23.7105 25.8086 25.8086 23.7105 25.8086 21.1395V11.8605C25.8086 9.28953 23.7105 7.19141 21.1395 7.19141ZM18.9971 16.5H17.2388V22.2625H15.0224V16.5H13.8404V14.1359H14.8747V13.1312C14.8747 12.1855 15.3475 10.6932 17.3422 10.6932H19.1596V12.6584H17.8741C17.6673 12.6584 17.3865 12.7913 17.3865 13.2494V14.1359H19.2039L18.9971 16.5Z" fill="#00C65E"/>
</svg>
