<svg width="323" height="323" viewBox="0 0 323 323" fill="none" xmlns="http://www.w3.org/2000/svg">
<g clip-path="url(#clip0_1689_37542)">
<path opacity="0.2" d="M293.217 253.521C286.501 303.225 232.797 331.489 188.025 308.883L41.4756 234.889C-11.4566 208.163 -12.0931 132.807 40.3799 105.19L208.911 16.4928C261.384 -11.1237 323.138 32.0664 315.198 90.8292L293.217 253.521Z" fill="#00C65E"/>
<rect x="200.221" y="81.7896" width="82.4417" height="79.9629" rx="2.80628" transform="rotate(2.21828 200.221 81.7896)" fill="white"/>
<path d="M147.304 114.525C146.654 93.5507 149.865 89.1401 153.733 87.3214C156.378 86.0781 163.136 86.186 169.058 89.1167C176.262 92.6822 191.583 108.747 199.804 118.547L186.077 134.782L194.189 142.719L193.259 166.71L150.935 167.511C148.418 149.505 147.812 130.944 147.304 114.525Z" fill="#00C65E"/>
<path d="M150.935 167.512L193.259 166.711L192.99 173.657L232.084 196.791C235.888 199.638 237.695 202.426 238.475 210.086C239.255 217.745 244.238 254.4 246.631 271.77C248.982 271.861 254.94 271.556 256.598 274.787C258.133 277.776 258.623 284.013 258.871 286.895L226.519 291.754L213.491 214.923C203.649 211.298 180.767 202.422 180.767 202.422C180.767 202.422 157.546 195.214 151.458 170.664L150.935 167.512Z" fill="#FFB762"/>
<path d="M140.537 222.148L153.012 175.613C156.364 182.116 165.824 196.252 176.847 200.766L160.474 236.191L111.201 271.046C112.425 273.046 114.76 277.383 114.634 280.642C114.406 286.541 106.416 288.851 102.386 291.058L84.2136 261.218L140.537 222.148Z" fill="#F1A74F"/>
<path d="M140.66 49.2155C140.273 42.1948 140.278 39.0047 143.314 35.3302C151.393 25.5518 173.455 29.8868 179.754 33.6585C184.217 36.3315 185.898 40.6378 186.821 46.1101C187.559 50.4879 188.195 63.9214 185.858 70.9722C184.281 75.7315 177.833 85.4922 164.661 86.4607C151.488 87.4292 145.448 78.1416 144.074 73.3767C142.298 65.8779 141.08 56.8279 140.66 49.2155Z" fill="#FBCFB1"/>
<path d="M140.66 49.2155C140.273 42.1948 140.278 39.0047 143.314 35.3302C151.393 25.5518 173.455 29.8868 179.754 33.6585C184.217 36.3315 186.441 40.9138 187.092 48.1287L140.66 49.2155Z" fill="#00C65E"/>
<path d="M185.481 45.3518L201.453 44.8928" stroke="#00C65E" stroke-width="5.61255" stroke-linecap="round"/>
<path d="M78.9744 124.623L123.745 124.623" stroke="#00C65E" stroke-width="8.41883" stroke-linecap="round"/>
<path d="M121.38 143.49L151.71 143.49" stroke="white" stroke-width="5.61255" stroke-linecap="round"/>
<path d="M42.8684 166.362L115.155 166.361" stroke="#00C65E" stroke-width="8.41883" stroke-linecap="round"/>
<path d="M91.7261 193.851L130.467 193.851" stroke="white" stroke-width="5.61255" stroke-linecap="round"/>
<path d="M203.337 151.279L186.027 134.759L199.835 118.607L210.84 131.374L259.645 134.947L266.351 131.982L280.774 132.541L280.003 152.425C274.903 152.555 264.15 152.596 261.94 151.725C259.73 150.854 256.445 151.185 255.078 151.459L203.337 151.279Z" fill="#FBCFB1"/>
<path d="M173.338 121.755C173.85 121.173 174.736 121.115 175.318 121.627L187.868 132.632L186.025 134.76L173.467 123.735C172.885 123.224 172.827 122.338 173.338 121.755Z" fill="#1E7836"/>
<path d="M232.393 82.8076L252.454 83.5847L251.625 104.979C251.565 106.527 250.261 107.734 248.712 107.674L234.26 107.114C232.711 107.054 231.505 105.75 231.565 104.202L232.393 82.8076Z" fill="#FD9558"/>
</g>
<defs>
<clipPath id="clip0_1689_37542">
<rect width="322.722" height="322.722" fill="white"/>
</clipPath>
</defs>
</svg>
